<svg width="1440" height="264" viewBox="0 0 1440 264" fill="none" xmlns="http://www.w3.org/2000/svg">
<path d="M0.914213 73.6099C0.914213 73.6099 1033.57 235.329 1439.49 0.116383" stroke="#422918" stroke-width="0.816" stroke-miterlimit="10"/>
<path d="M1133.46 137.025C1128.22 158.857 1148.69 199.057 1157.46 201.726C1163.33 203.464 1175.88 177.744 1184.06 156.803C1188.75 144.805 1193.07 135.673 1187.59 131.012C1169.62 147.387 1141.64 141.226 1133.46 137.025ZM1138.79 128.538C1161.45 137.397 1189.26 127.399 1195.48 111.473C1198.38 104.047 1197.26 96.5734 1188.74 91.9856C1189.5 94.5511 1189.56 96.3294 1188.2 99.8177C1183.51 111.823 1160.03 117.988 1140.16 110.222C1132.96 107.406 1128.82 111.563 1127.8 114.182C1125.41 120.297 1130.28 125.215 1138.79 128.538ZM1143.62 102.008C1140.57 100.817 1136.2 99.108 1135.67 93.3783C1135.23 88.6744 1138.37 82.6016 1135.76 78.3188C1139.05 80.8549 1142.97 82.3907 1146.03 83.5836C1155.86 87.4251 1167.89 84.3363 1175.09 87.1498C1179.84 89.0092 1180.18 92.6632 1178.99 95.7092C1175.23 105.32 1152.79 105.593 1143.62 102.008Z" fill="#CF98D9"/>
<path d="M504.237 146.973C504.029 149.151 505.423 151.015 507.602 151.223C510.092 151.461 511.864 149.432 512.1 146.938C512.415 143.676 509.885 138.874 507.081 138.606C505.828 138.485 506.124 140.4 505.615 142.394C505.31 143.93 504.357 145.724 504.237 146.973ZM498.12 125.498C514.171 130.173 521.869 143.321 520.767 154.837C520.008 162.78 514.333 169.606 505.614 168.771C497.671 168.011 492.46 162.027 493.292 153.302C493.918 146.769 499.675 140.412 500.314 133.711C500.566 131.072 500.046 128.352 498.12 125.498ZM474.916 149.983C476.321 151.68 476.642 153.283 476.492 154.843C476.268 157.181 474.94 159.567 474.689 162.214C474.333 165.936 476.82 169.478 480.861 169.863C485.23 170.283 488.517 167.137 488.904 163.106C489.468 157.186 483.932 150.847 474.916 149.983ZM527.368 144.949C528.297 146.754 528.6 148.517 528.45 150.07C528.034 154.433 524.692 158.194 524.261 162.71C523.77 167.85 527.265 172.413 533.148 172.976C539.532 173.588 544.382 168.88 544.964 162.804C545.752 154.557 538.943 146.84 527.368 144.949ZM480.388 132.123C487.462 133.743 488.941 136.398 488.748 138.424C488.422 141.849 485.199 142.635 482.236 142.351C480.061 142.143 477.616 141.438 474.968 141.187C471.543 140.859 468.051 141.312 464.935 144.312C466.926 144.816 469.752 146.502 469.456 149.62C468.593 158.645 444.255 148.771 442.038 171.97C440.863 184.259 452.346 198.874 471.636 200.718C481.601 201.67 488.3 199.013 488.659 195.271C488.939 192.315 483.455 193.833 483.693 191.342C483.798 190.253 485.853 188.399 486.018 186.686C486.089 185.929 485.605 184.462 484.361 184.344C481.553 184.075 475.832 188.071 465.092 187.046C456.689 186.242 448.903 180.639 449.527 174.097C449.662 172.697 450.362 171.975 451.293 172.062C452.228 172.152 453.411 172.899 454.502 173.005C455.437 173.093 455.651 172.481 455.816 170.77C455.981 169.056 456.44 164.225 459.39 164.507C462.348 164.79 466.913 176.23 488.395 178.285C495.525 178.967 509.517 178.893 515.101 174.709C513.31 191.817 497.764 213.103 469.767 210.426C440.675 207.642 427.348 182.804 429.401 161.326C431.674 137.516 453.18 117.749 479.794 120.293C486.635 120.946 492.18 123.827 491.897 126.783C491.508 130.839 481.628 127.378 480.388 132.123Z" fill="#005EEF"/>
<path d="M614.306 122.507C606.442 123.646 592.925 134.572 591.095 153.713C588.913 176.555 610.029 214.116 650.346 217.969C684.371 221.224 695.006 198.48 696.525 182.611C699.888 147.397 680.586 120.606 652.388 117.909C636.999 116.437 622.181 126.326 620.599 142.87C619.127 158.273 628.577 182.467 656.314 185.119C669.363 186.37 677.942 177.767 678.965 167.061C679.967 156.558 671.795 141.198 657.808 139.86C653.614 139.459 650.326 141.945 649.903 146.383C649.37 151.976 656.517 158.318 666.07 159.233C668.402 159.456 670.313 159.168 671.289 158.791C671.69 159.538 671.813 160.723 671.723 161.656C671.21 167.028 665.764 169.801 657.848 169.046C645.964 167.908 635.379 157.949 636.716 143.942C637.517 135.564 645.328 130.191 655.814 131.192C676.558 133.176 687.146 152.772 685.387 171.208C683.803 187.75 673.814 196.452 655.167 194.668C617.865 191.102 602.905 155.783 614.306 122.507Z" fill="#00D7C4"/>
<path d="M1041.96 127.175C1040.38 123.963 1033.58 121.677 1030.32 121.365C1020.04 120.384 1012.37 126.938 1010.34 133.339C1009.63 130.913 1009.2 128.048 1009.47 125.248C1010.44 114.992 1018.65 103.07 1035.68 104.698C1050.56 106.121 1055.63 114.603 1057.73 114.804C1060.06 115.028 1062.62 112.914 1064.49 113.092C1067.05 113.337 1066.68 117.306 1066.41 120.109C1065.52 129.428 1059.78 145.122 1048.72 149.953C1047.23 145.801 1043.93 141.012 1038.17 137.644C1036.61 136.792 1036.05 135.326 1036.18 133.929C1036.42 131.357 1039.07 128.309 1041.96 127.175ZM1005.15 140.837C1010.66 147.248 1015.77 150.319 1022.3 150.946C1024.88 151.192 1027.98 150.787 1029.62 150.946C1031.71 151.145 1033.02 152.202 1032.86 153.836C1032.62 156.405 1029.88 160.379 1026.86 162.447C1029.55 163.881 1032.54 164.641 1035.81 164.955C1049.05 166.22 1065.02 159.262 1067.02 138.287C1069.47 142.277 1070.37 150.138 1070.03 153.635C1067.6 179.049 1048 187.052 1030.8 185.407C1019.59 184.336 1014.34 180.066 1012.94 179.933C1008.52 179.509 1007.91 188.401 1004.9 187.877C999.619 186.434 995.87 174.072 997.075 161.483C997.789 154.014 1000.41 146.267 1005.15 140.837Z" fill="#008651"/>
<path d="M202.388 97.4077C202.471 96.5222 198.143 95.2133 192.111 94.6378C182.546 93.7236 183.109 101.81 175.753 101.107C168.098 100.375 170.792 92.3025 161.081 91.3742C155.195 90.8106 149.653 91.3215 149.528 92.6484C149.359 94.4168 156.345 94.3386 155.881 99.2067C155.389 104.356 140.386 104.408 140.09 107.501C139.993 108.526 141.117 109.083 142.592 109.223C145.834 109.531 151.125 108.555 154.804 108.908C156.867 109.105 158.739 109.724 158.556 111.641C158.206 115.322 149.621 121.189 149.339 124.135C149.256 125.021 149.961 125.387 150.697 125.458C153.643 125.74 159.361 118.705 164.074 119.156C171.873 119.902 165.137 136.05 169.4 136.457C173.82 136.879 173.469 120.347 179.794 120.95C184.952 121.444 187.689 133.15 191.224 133.487C192.111 133.572 192.914 132.906 193.011 131.875C193.309 128.787 189.495 122.028 189.888 117.908C190.127 115.403 192.008 114.393 194.363 114.618C197.743 114.94 202.111 117.439 204.608 117.678C205.49 117.763 206.401 117.553 206.5 116.524C206.836 112.992 194.112 107.912 194.548 103.348C194.986 98.7802 202.191 99.4712 202.388 97.4077ZM235.54 115.738C235.287 118.382 244.012 125.019 248.281 125.427C250.778 125.666 251.841 122.347 252.177 118.81C252.601 114.397 250.706 114.064 246.873 113.699C242.021 113.235 235.708 113.969 235.54 115.738ZM248.068 146.351C248.91 137.516 226.563 119.186 226.963 112.241C226.996 111.607 227.4 111.011 227.989 110.497C232.494 106.576 249.782 105.054 250.132 101.375C250.316 99.4653 246.781 99.1286 245.011 98.9577C231.328 97.6506 210.831 100.742 210.367 105.598C209.891 110.609 226.678 124.551 226.1 130.586C225.946 132.208 224.858 132.696 223.235 132.542C218.239 132.064 207.923 124.98 202.774 124.49C200.419 124.262 199.378 125.796 199.152 128.157C198.478 135.226 205.589 149.423 205.209 153.392C205.166 153.836 204.963 154.412 204.373 154.355C201.72 154.101 190.627 138.19 186.205 137.765C184.588 137.611 184.232 139.8 183.919 143.042L183.443 148.047C183.119 151.433 182.772 153.482 181.16 153.326C177.332 152.961 176.589 142.045 172.917 141.693C169.085 141.328 166.519 160.397 162.846 160.045C158.573 159.637 164.266 138.932 160.141 138.537C155.587 138.101 149.093 151.597 145.852 151.289C144.682 151.176 144.498 149.969 144.595 148.937C145.002 144.671 148.162 137.987 148.554 133.872C148.752 131.804 148.275 130.571 146.514 130.403C141.95 129.965 131.237 136.369 127.413 136.005C126.826 135.948 126.116 135.584 126.172 134.994C126.511 131.464 143.621 121.806 144.099 116.802C144.564 111.937 122.169 113.069 122.705 107.469C123.154 102.759 139.378 99.4028 139.841 94.5484C140.249 90.2727 121.738 86.5785 114.528 85.8894C105.841 85.0577 101.039 85.6307 100.8 88.1357C100.435 91.9699 120.041 95.0332 119.719 98.4145C119.409 101.661 98.1222 108.388 97.6441 113.393C97.2204 117.811 126.459 116.445 126.023 121.014C125.545 126.017 98.3171 145.252 97.6284 152.465C97.4718 154.089 98.5807 154.937 100.193 155.093C107.846 155.825 129.101 143.149 134.553 143.671C136.469 143.856 136.393 146.22 136.194 148.283C135.829 152.115 133.942 157.873 133.532 162.146C133.211 165.53 133.866 167.974 136.806 168.253C142.255 168.774 148.144 159.976 151.825 160.327C156.531 160.777 151.138 187.751 158.201 188.428C164.233 189.004 169.549 159.794 173.372 160.159C177.203 160.524 179.484 169.36 183.008 169.698C187.425 170.12 186.785 155.054 191.498 155.504C196.643 155.996 209.671 175.075 216.298 175.708C218.354 175.904 219.24 174.35 219.436 172.287C220.182 164.486 210.989 145.782 211.522 140.189C211.664 138.715 212.139 138.313 213.76 138.47C219.506 139.018 235.526 148.573 243.469 149.331C246.122 149.585 247.885 148.27 248.068 146.351ZM114.501 124.96C114.221 127.909 102.098 136.701 98.1262 136.32C96.6581 136.18 96.3824 134.373 96.5383 132.756C96.8172 129.816 98.5372 125.813 100.286 124.64C102.359 123.058 106.859 122.604 110.245 122.928C112.299 123.124 114.614 123.784 114.501 124.96ZM221.229 150.471C220.737 155.623 236.729 182.566 240.262 182.902C243.212 183.185 245.903 178.243 246.326 173.819C246.436 172.649 246.257 171.443 245.759 170.499C243.46 166.565 226.175 150.051 222.048 149.657C221.604 149.617 221.271 150.032 221.229 150.471Z" fill="#FFC000"/>
<path d="M735.704 163.212C735.982 172.94 744.365 181.096 754.737 180.949C758.468 180.902 762 180.226 764.421 179.036C765.842 188.253 772.945 194.777 783.413 194.431C794.043 194.089 801.967 186.604 801.822 176.072C801.787 173.246 801.395 171.483 800.729 169.431C800.729 169.431 802.13 169.424 803.204 169.327C813.671 168.395 821.398 160.906 821.479 150.961C821.312 140.723 812.826 132.317 803.119 132.567C799.36 132.662 795.787 133.735 793.315 135.486C791.552 126.805 784.214 118.703 773.059 119.448C762.989 120.123 755.64 127.797 755.629 138.42C755.629 140.142 755.844 142.136 756.519 144.177C756.519 144.177 754.809 144.263 753.646 144.318C745.203 144.743 735.39 152.156 735.704 163.212ZM790.04 157.237C790.172 163.189 785.412 168.081 779.396 168.199C773.38 168.315 768.384 163.591 768.265 157.655C768.136 151.706 772.895 146.787 778.92 146.671C784.938 146.556 789.917 151.281 790.04 157.237Z" fill="#E60067"/>
<path d="M323.369 110.386L291.73 242.871L331.015 208.92L339.69 261.229C339.69 261.229 373.314 161.533 377.74 115.635C348.664 113.331 323.369 110.386 323.369 110.386Z" fill="#EB0000"/>
<path d="M874.4 123.435L881.685 239.562L905.007 203.645L923.886 243.08C923.886 243.08 928.299 158.724 921.266 121.357C890.88 123.611 874.4 123.435 874.4 123.435Z" fill="#7705BC"/>
<path d="M1277.81 75.0593C1279.75 75.8767 1281.64 77.4434 1283.07 80.0776C1277.76 80.6231 1272.78 86.4149 1271.51 89.4432C1262.16 111.68 1297.87 116.791 1287.88 140.543C1283.71 150.471 1282.05 150.79 1280.5 154.459C1279.87 155.977 1280.16 157.114 1281.45 157.657C1287.07 160.021 1304.23 157.833 1313.58 135.599C1322.92 113.36 1318.33 86.2597 1301.47 79.1682C1298.67 77.9899 1295.4 77.3731 1291.82 77.4003C1290.89 75.9924 1290.94 73.4607 1291.75 71.5187C1293.2 68.073 1297.91 67.7642 1299.28 64.5242C1300.73 61.0672 1299.23 57.3813 1295.77 55.9284C1292.96 54.7451 1290.38 55.4405 1287.99 57.4889C1287.42 55.2139 1285.8 53.0058 1283.43 52.0094C1279.76 50.464 1275.24 51.6124 1273.42 55.9362C1272.6 57.8849 1272.7 59.4503 1273.56 61.5809C1269.52 60.3818 1264.93 60.9999 1263.2 65.1023C1261.84 68.345 1263.22 71.724 1266.89 73.2713C1270.32 74.715 1274.14 73.5146 1277.81 75.0593Z" fill="#FF544F"/>
</svg>
