<svg width="1440" height="343" viewBox="0 0 1440 343" fill="none" xmlns="http://www.w3.org/2000/svg">
<path d="M0 214.989C0 214.989 1054.49 277.481 1440 0.999949" stroke="#422918" stroke-width="0.816" stroke-miterlimit="10"/>
<path d="M129.962 198.645C141.799 198.633 151.285 214.04 151.301 232.066C151.317 251.26 142.338 272.14 126.302 286.37C126.037 254.37 86.9584 264.601 86.9375 241.366C86.9282 231.412 94.0317 224.759 102.563 224.75C110.14 224.745 116.06 226.876 120.329 231.147C116.06 227.116 113.922 221.423 113.917 215.975C113.908 206.954 119.588 198.654 129.962 198.645Z" fill="#EB0000"/>
<path d="M410.401 225.785C410.984 228.637 413.681 230.422 416.537 229.838C419.394 229.251 421.184 226.548 420.602 223.694C420.017 220.83 417.312 219.042 414.455 219.628C411.599 220.212 409.816 222.922 410.401 225.785ZM386.398 277.723C383.44 263.219 348.065 266.639 347.398 263.373C346.857 260.721 365.28 252.258 375.22 250.009C355.934 233.536 334.568 240.043 333.86 236.572C333.442 234.523 348.921 227.093 363.98 224.006C376.613 221.421 389.023 221.856 390.983 231.457C392.067 236.774 388.914 243.169 390.579 251.332C391.498 255.829 394.523 259.248 400.445 258.032C406.773 256.736 406.824 249.706 405.362 242.551C404.157 236.635 402.218 232.345 401.633 229.486C399.883 220.907 404.591 213.994 412.955 212.281C419.891 210.858 422.145 213.577 432.348 211.488C427.505 215.892 426.679 222.235 427.262 225.087C429.012 233.676 435.733 238.461 439.317 256.031C445.9 288.292 418.078 305.911 381.17 313.471C371.019 315.553 360.034 316.949 349.091 317.5C347.422 317.628 346.932 317.305 346.723 316.283C346.18 313.622 360.375 309.223 357.708 296.159C356.665 291.046 354.028 286.489 353.654 284.651C353.446 283.627 354.135 282.846 354.959 282.676C358.014 282.05 366.555 292.642 377.936 290.311C380.971 289.69 388.315 287.117 386.398 277.723ZM416.623 250.048C420.33 268.218 409.951 284.812 386.865 293.584C389.564 293.242 392.013 292.739 394.463 292.237C422.364 286.521 429.985 271.775 427.821 261.156C426.609 255.229 422.264 250.592 416.623 250.048Z" fill="#005EEF"/>
<path d="M753.724 196.538C753.646 195.64 749.109 195.122 743.003 195.643C733.329 196.464 735.351 204.415 727.908 205.048C720.166 205.708 721.385 197.18 711.562 198.015C705.608 198.52 700.191 200.035 700.304 201.378C700.456 203.172 707.389 201.826 707.805 206.759C708.248 211.976 693.341 214.747 693.606 217.881C693.693 218.92 694.913 219.27 696.406 219.143C699.685 218.863 704.768 216.932 708.49 216.615C710.576 216.438 712.55 216.716 712.716 218.658C713.031 222.388 705.558 229.786 705.808 232.772C705.886 233.668 706.654 233.905 707.397 233.843C710.379 233.588 714.792 225.547 719.559 225.141C727.451 224.471 723.672 241.774 727.982 241.406C732.453 241.026 729.116 224.624 735.514 224.081C740.733 223.637 745.57 234.797 749.146 234.494C750.042 234.419 750.722 233.61 750.631 232.563C750.368 229.434 745.354 223.395 745 219.221C744.787 216.681 746.474 215.334 748.856 215.132C752.275 214.841 757.071 216.538 759.594 216.325C760.488 216.246 761.356 215.875 761.268 214.831C760.965 211.252 747.396 208.5 747.003 203.876C746.61 199.247 753.9 198.628 753.724 196.538ZM789.999 208.785C790.227 211.464 800.1 216.492 804.42 216.123C806.946 215.91 807.402 212.411 807.098 208.826C806.721 204.359 804.779 204.369 800.9 204.7C795.995 205.117 789.847 206.994 789.999 208.785ZM807.99 237.004C807.233 228.051 781.697 213.844 780.842 206.857C780.759 206.22 781.052 205.553 781.546 204.934C785.314 200.211 802.228 195.563 801.914 191.835C801.75 189.901 798.173 190.205 796.384 190.357C782.544 191.533 762.721 198.327 763.139 203.248C763.569 208.324 782.781 219.169 783.298 225.282C783.438 226.925 782.445 227.609 780.804 227.749C775.747 228.181 764.212 222.994 759.003 223.438C756.621 223.639 755.863 225.355 756.066 227.75C756.67 234.909 766.308 247.762 766.649 251.782C766.687 252.232 766.588 252.843 765.991 252.892C763.31 253.121 749.403 239.286 744.93 239.664C743.293 239.805 743.333 242.049 743.61 245.334L744.04 250.405C744.331 253.834 744.357 255.939 742.727 256.076C738.854 256.405 736.142 245.67 732.427 245.984C728.551 246.315 729.447 265.771 725.729 266.087C721.407 266.453 723.326 244.802 719.154 245.156C714.545 245.549 710.528 260.166 707.249 260.446C706.064 260.545 705.665 259.375 705.577 258.331C705.21 254.009 707.143 246.781 706.789 242.61C706.613 240.515 705.914 239.374 704.132 239.525C699.516 239.916 690.021 248.236 686.155 248.564C685.559 248.616 684.789 248.383 684.738 247.784C684.435 244.209 699.701 231.488 699.273 226.419C698.854 221.489 676.794 226.676 676.314 220.999C675.91 216.229 691.433 209.947 691.017 205.026C690.649 200.697 671.576 200.37 664.283 200.991C655.495 201.736 650.825 203.18 651.038 205.718C651.367 209.599 671.417 209.1 671.708 212.526C671.987 215.814 652.037 226.372 652.467 231.443C652.845 235.921 681.67 229.26 682.062 233.891C682.49 238.957 658.893 263.051 659.513 270.359C659.652 272.004 660.909 272.648 662.538 272.511C670.282 271.854 689.124 255.377 694.639 254.908C696.577 254.743 696.927 257.111 697.104 259.201C697.432 263.087 696.599 269.163 696.964 273.494C697.255 276.921 698.35 279.234 701.322 278.98C706.837 278.513 711.1 268.681 714.822 268.366C719.583 267.959 719.097 295.802 726.243 295.196C732.344 294.676 732.351 264.623 736.217 264.292C740.09 263.962 743.958 272.349 747.523 272.045C751.991 271.666 748.632 256.777 753.399 256.372C758.603 255.93 775.005 272.567 781.708 271.996C783.789 271.821 784.39 270.113 784.213 268.023C783.542 260.117 771.02 243.156 770.54 237.488C770.415 235.996 770.815 235.51 772.455 235.37C778.266 234.876 795.921 241.488 803.957 240.803C806.641 240.575 808.156 238.946 807.99 237.004ZM671.32 239.907C671.572 242.895 661.109 253.848 657.092 254.189C655.604 254.314 655.004 252.567 654.866 250.927C654.614 247.949 655.6 243.65 657.126 242.167C658.902 240.214 663.295 238.944 666.719 238.654C668.798 238.478 671.219 238.714 671.32 239.907ZM782.051 245.972C782.492 251.189 803.265 275.124 806.837 274.818C809.819 274.566 811.604 269.155 811.224 264.673C811.124 263.487 810.727 262.32 810.061 261.47C807.063 257.97 786.891 244.656 782.719 245.01C782.267 245.051 782.014 245.524 782.051 245.972Z" fill="#FFC000"/>
<path d="M513.217 256.391C514.54 267.075 524.517 275.163 535.787 273.901C539.842 273.453 543.614 272.333 546.124 270.764C548.636 280.764 557.05 287.194 568.403 285.7C579.934 284.193 587.77 275.107 586.51 263.524C586.172 260.415 585.561 258.515 584.621 256.326C584.621 256.326 586.145 256.17 587.303 255.949C598.594 253.809 606.215 244.74 605.26 233.779C604.003 222.521 593.888 214.166 583.352 215.474C579.273 215.977 575.498 217.539 572.992 219.731C570.163 210.357 561.328 202.214 549.269 204.222C538.383 206.035 531.192 215.268 532.295 226.968C532.476 228.865 532.918 231.038 533.868 233.214C533.868 233.214 532.015 233.487 530.756 233.675C521.615 235.041 511.714 244.248 513.217 256.391ZM571.711 244.034C572.482 250.574 567.813 256.467 561.279 257.238C554.746 258.005 548.814 253.334 548.062 246.805C547.297 240.271 551.96 234.347 558.502 233.58C565.039 232.812 570.952 237.487 571.711 244.034Z" fill="#E60067"/>
<path d="M229.753 221.226L210.777 331.801L247.003 301.009L260.804 343C260.804 343 284.956 259.018 284.956 221.226C255.483 221.637 229.753 221.226 229.753 221.226Z" fill="#9C44C0"/>
<path d="M1346.47 72.6992C1342.27 74.3969 1331.53 114.878 1316.55 120.926C1312.95 122.382 1307.2 116.772 1305.11 111.579C1303.98 108.769 1304.97 106.033 1310.82 102.033C1342.08 80.3094 1324.06 57.5063 1353.46 45.6299C1369.67 39.0838 1392.14 42.8432 1402.14 67.7125C1412.8 94.1914 1388.42 142.259 1382.81 144.525C1378.2 146.385 1370.54 141.796 1368.76 137.384C1368.2 135.984 1368.07 133.928 1371.44 130.71C1387.55 115.328 1391.46 93.2418 1387.82 84.2086C1387.01 82.2001 1385.22 80.6209 1382.62 81.6743C1379.22 83.0416 1378.03 122.211 1361.8 128.763C1350.58 133.296 1335.06 127.694 1333.12 122.871C1329.89 114.841 1356.37 86.9031 1351.85 75.6594C1350.16 71.4394 1348.08 72.0492 1346.47 72.6992ZM1363.06 51.5549C1360.26 52.6838 1358.15 56.1073 1360.33 61.5326C1362.74 67.5308 1368.88 69.4851 1371.96 69.635C1373.69 69.8738 1376.22 69.7892 1378.4 68.9058C1384.22 66.5568 1388.18 63.0877 1386.24 58.265C1383.75 52.0712 1371.66 48.0777 1363.06 51.5549Z" fill="#FFC000"/>
<path d="M1048.75 233.857C1057.31 233.85 1064.42 227.509 1064.41 213.449L1064.39 192.632C1064.39 184.681 1064.99 175.708 1070.28 169.369C1069.67 172.023 1069.68 174.882 1069.68 177.525C1069.7 195.077 1079.48 207.11 1079.49 224.038C1079.5 230.354 1077.66 233.832 1072.79 233.837C1068.1 233.841 1068.5 229.552 1067.48 229.552C1066.67 229.554 1065.45 232.204 1065.45 235.065C1065.46 239.352 1068.52 246.077 1077.07 246.068C1084.4 246.061 1090.29 239.329 1090.29 231.775C1090.27 213.426 1076 193.032 1075.98 173.449C1075.97 164.873 1078.21 159.164 1080.04 154.672C1080.08 195.272 1114.51 224.822 1114.52 241.753C1114.52 245.628 1111.69 248.697 1107.41 248.699C1102.72 248.704 1100.48 245.026 1100.47 242.169C1100.47 240.739 1100.27 240.331 1099.66 240.331C1098.45 240.334 1094.78 244.421 1094.79 249.729C1094.79 256.455 1100.29 264.622 1110.48 264.613C1122.07 264.601 1128.38 254.794 1128.37 246.024C1128.35 224.606 1086.58 192.204 1086.55 157.524C1086.55 151.601 1087.55 142.015 1091.83 134.671C1064.97 152.027 1056.65 175.101 1056.67 195.293C1056.68 212.847 1056.08 221.607 1047.12 221.614C1042.44 221.619 1041.21 217.339 1039.58 217.341C1038.35 217.341 1037.74 221.014 1037.75 222.031C1037.75 229.58 1043.26 233.862 1048.75 233.857Z" fill="#FF544F"/>
<path d="M960.95 195.996C960.954 201.461 965.469 205.962 970.853 205.957C976.301 205.95 980.802 201.442 980.795 195.978C980.791 190.534 976.285 186.035 970.834 186.042C965.451 186.047 960.945 190.55 960.95 195.996ZM961.688 225.872C961.692 232.046 966.677 237.024 972.782 237.017C978.938 237.013 983.908 232.023 983.904 225.854C983.897 219.698 978.92 214.72 972.761 214.727C966.653 214.732 961.681 219.717 961.688 225.872ZM927.612 246.062C927.621 255.069 934.961 262.42 943.969 262.411C952.957 262.404 960.297 255.039 960.29 246.031C960.281 237.031 952.927 229.68 943.938 229.69C934.931 229.697 927.603 237.059 927.612 246.062ZM936.338 212.622C936.345 217.842 940.607 222.111 945.821 222.104C951.028 222.099 955.283 217.826 955.276 212.606C955.274 207.395 951.009 203.129 945.805 203.133C940.591 203.138 936.333 207.411 936.338 212.622ZM905.377 231.623C905.382 236.843 909.653 241.095 914.805 241.091C920.019 241.088 924.281 236.824 924.276 231.606C924.269 226.386 920.002 222.129 914.788 222.134C909.637 222.136 905.373 226.403 905.377 231.623ZM929.676 176.128C929.685 184.418 936.556 191.286 944.844 191.276C953.131 191.269 959.991 184.391 959.984 176.1C959.977 167.79 953.103 160.93 944.816 160.937C936.528 160.944 929.669 167.816 929.676 176.128ZM947.413 146.945C947.416 151.914 951.441 155.945 956.418 155.941C961.388 155.936 965.418 151.898 965.416 146.929C965.409 141.946 961.372 137.91 956.402 137.917C951.425 137.919 947.407 141.962 947.413 146.945ZM904.618 169.738C904.621 174.725 908.646 178.759 913.572 178.754C918.549 178.747 922.565 174.709 922.563 169.721C922.558 164.75 918.533 160.723 913.556 160.73C908.63 160.733 904.614 164.766 904.618 169.738ZM903.455 200.56C903.462 208.632 909.865 215.016 917.862 215.009C925.913 215.002 932.31 208.604 932.306 200.532C932.296 192.479 925.889 186.082 917.836 186.091C909.839 186.098 903.448 192.502 903.455 200.56ZM873.648 215.762C873.653 223.12 879.802 229.266 887.145 229.262C894.476 229.255 900.63 223.097 900.626 215.737C900.616 208.395 894.451 202.226 887.12 202.235C879.777 202.24 873.641 208.421 873.648 215.762ZM881.657 182.327C881.66 187.538 885.929 191.809 891.122 191.804C896.345 191.8 900.598 187.522 900.595 182.311C900.591 177.102 896.326 172.831 891.105 172.836C885.912 172.841 881.653 177.119 881.657 182.327ZM964.796 255.276C964.792 250.537 969.054 246.501 973.731 246.497C978.945 246.494 982.977 250.521 982.982 255.26C982.989 260.715 978.961 264.518 973.748 264.523C969.07 264.525 964.799 260.731 964.796 255.276Z" fill="#00A889"/>
<path d="M1275.64 174.07C1285.24 186.415 1278.96 200.327 1267.01 209.654C1261.79 213.73 1252.97 218.222 1251.08 215.791C1249.19 213.352 1253.77 210.375 1257.41 206.934C1262.16 202.632 1262.55 200.822 1261.24 199.134C1258.76 195.952 1249.71 199.729 1242.79 205.126C1238.51 208.472 1234.23 213.011 1236.84 216.371C1238.3 218.24 1240.54 219.198 1242.53 219.447C1233.37 225.401 1220.95 224.866 1213.97 215.893C1201.18 199.434 1215.61 178.248 1225.35 167.632C1207.2 165.879 1192.42 162.699 1179.62 146.229C1167.7 130.899 1173.51 115.229 1184.16 106.924C1187.33 104.443 1196.41 99.1608 1199.47 103.093C1203.1 107.764 1184.61 115.598 1191.73 124.759C1193.48 127.008 1198.54 129.655 1206.44 127.1C1211.2 125.494 1215.69 123.189 1219.06 120.565C1224.1 116.623 1226.39 113.031 1223.49 109.3C1221.01 106.111 1215.54 104.066 1213.21 103.78C1230.15 97.7816 1245.49 103.241 1254.79 115.207C1266.28 129.991 1259.31 148.043 1244.75 159.408C1242.7 161.007 1240.31 162.568 1237.97 163.797C1253.37 161.993 1268.23 164.533 1275.64 174.07ZM1242.42 176.857C1245.6 174.374 1245.76 173.042 1245.18 172.296C1243.72 170.425 1239.88 170.126 1232.51 171.066C1226.09 176.688 1223.97 180.143 1225.43 182.01C1227.02 184.064 1235.89 181.953 1242.42 176.857ZM1214.84 157.198C1216.44 159.254 1220.72 160.13 1229.92 160.776C1232.63 159.255 1234.88 157.504 1237.68 155.315C1241.41 152.406 1244.35 147.701 1242.61 145.457C1238.24 139.837 1221.13 148.701 1217.21 151.764C1214.98 153.505 1213.97 156.08 1214.84 157.198ZM1221.93 200.671C1225.56 205.34 1247.56 196.586 1258.76 187.846C1261.19 185.947 1263.51 183.538 1262.63 182.413C1259.58 178.485 1236.02 186.366 1225.94 194.231C1222.01 197.293 1221.06 199.544 1221.93 200.671ZM1196.58 146.834C1201.52 153.188 1241.53 133.663 1247.32 129.142C1248.82 127.973 1249.51 126.548 1248.49 125.237C1243.98 119.438 1205.07 136.899 1197.78 142.584C1196.47 143.604 1195.27 145.145 1196.58 146.834Z" fill="#EB0000"/>
</svg>
