<svg width="32" height="32" viewBox="0 0 32 32" fill="none" xmlns="http://www.w3.org/2000/svg">
<path d="M15.9459 17.68V19H10.6559V17.95L13.3559 15.4C13.6426 15.1267 13.8359 14.8933 13.9359 14.7C14.0359 14.5 14.0859 14.3033 14.0859 14.11C14.0859 13.83 13.9893 13.6167 13.7959 13.47C13.6093 13.3167 13.3326 13.24 12.9659 13.24C12.6593 13.24 12.3826 13.3 12.1359 13.42C11.8893 13.5333 11.6826 13.7067 11.5159 13.94L10.3359 13.18C10.6093 12.7733 10.9859 12.4567 11.4659 12.23C11.9459 11.9967 12.4959 11.88 13.1159 11.88C13.6359 11.88 14.0893 11.9667 14.4759 12.14C14.8693 12.3067 15.1726 12.5467 15.3859 12.86C15.6059 13.1667 15.7159 13.53 15.7159 13.95C15.7159 14.33 15.6359 14.6867 15.4759 15.02C15.3159 15.3533 15.0059 15.7333 14.5459 16.16L12.9359 17.68H15.9459Z" fill="#3d3d3d"/>
<path d="M21.9444 15.35C22.371 15.4767 22.6977 15.6833 22.9244 15.97C23.151 16.2567 23.2644 16.61 23.2644 17.03C23.2644 17.65 23.0277 18.1333 22.5544 18.48C22.0877 18.8267 21.4177 19 20.5444 19H17.0944V12H20.3544C21.1677 12 21.801 12.1567 22.2544 12.47C22.7077 12.7833 22.9344 13.23 22.9344 13.81C22.9344 14.1567 22.8477 14.4633 22.6744 14.73C22.501 14.99 22.2577 15.1967 21.9444 15.35ZM18.7044 14.9H20.2144C20.5677 14.9 20.8344 14.83 21.0144 14.69C21.1944 14.5433 21.2844 14.33 21.2844 14.05C21.2844 13.7767 21.191 13.5667 21.0044 13.42C20.8244 13.2733 20.561 13.2 20.2144 13.2H18.7044V14.9ZM20.4844 17.8C21.2444 17.8 21.6244 17.5 21.6244 16.9C21.6244 16.32 21.2444 16.03 20.4844 16.03H18.7044V17.8H20.4844Z" fill="#3d3d3d"/>
<path d="M29 8L29.5 8L29.5 7.5L29 7.5L29 8ZM29 24L31.8868 19L26.1132 19L29 24ZM25 8.5L29 8.5L29 7.5L25 7.5L25 8.5ZM28.5 8L28.5 19.5L29.5 19.5L29.5 8L28.5 8Z" fill="#3d3d3d"/>
</svg>
