<svg width="264" height="206" viewBox="0 0 264 206" fill="none" xmlns="http://www.w3.org/2000/svg">
<path d="M242.181 145.176C241.43 145.602 240.473 145.345 240.041 144.602C239.611 143.858 239.872 142.91 240.622 142.482L248.858 138.005C249.608 137.58 250.566 137.837 250.996 138.579C251.427 139.323 251.167 140.272 250.417 140.699L242.181 145.176Z" fill="#001F82"/>
<path d="M244.262 158.251C243.405 158.136 242.804 157.352 242.921 156.504C243.039 155.654 243.829 155.06 244.687 155.177L253.969 156.61C254.825 156.726 255.427 157.508 255.308 158.358C255.191 159.208 254.402 159.802 253.544 159.686L244.262 158.251Z" fill="#001F82"/>
<path d="M238.46 169.638C237.84 169.04 237.827 168.057 238.431 167.443C239.034 166.829 240.026 166.817 240.646 167.415L247.251 174.032C247.871 174.63 247.885 175.613 247.281 176.227C246.676 176.841 245.684 176.853 245.064 176.255L238.46 169.638Z" fill="#001F82"/>
<path d="M226.334 175.205C226.213 174.357 226.808 173.57 227.664 173.45C228.521 173.328 229.313 173.917 229.436 174.767L230.589 184.001C230.712 184.85 230.117 185.637 229.26 185.757C228.404 185.879 227.61 185.288 227.488 184.439L226.334 175.205Z" fill="#001F82"/>
<path d="M213.688 172.799C214.099 172.045 215.049 171.763 215.811 172.17C216.572 172.577 216.857 173.518 216.446 174.272L211.833 182.379C211.422 183.133 210.472 183.414 209.71 183.008C208.949 182.601 208.664 181.66 209.075 180.906L213.688 172.799Z" fill="#001F82"/>
<path d="M205.008 162.892C205.796 162.539 206.724 162.884 207.082 163.665C207.439 164.445 207.09 165.365 206.302 165.718L197.676 169.404C196.888 169.757 195.958 169.411 195.601 168.631C195.243 167.85 195.594 166.929 196.382 166.576L205.008 162.892Z" fill="#001F82"/>
<path d="M233.814 145.875C233.294 146.56 232.311 146.695 231.62 146.18C230.928 145.665 230.791 144.691 231.312 144.006L247.124 123.221C247.645 122.536 248.628 122.398 249.32 122.915C250.009 123.431 250.148 124.404 249.628 125.089L233.814 145.875Z" fill="#001F82"/>
<path d="M237.607 153.595C236.776 153.831 235.908 153.354 235.668 152.531C235.43 151.707 235.911 150.848 236.743 150.612L262.002 143.437C262.834 143.201 263.701 143.677 263.94 144.501C264.178 145.325 263.697 146.184 262.865 146.422L237.607 153.595Z" fill="#001F82"/>
<path d="M235.948 162.022C235.139 161.715 234.736 160.817 235.046 160.017C235.356 159.218 236.262 158.817 237.07 159.125L261.601 168.452C262.409 168.759 262.812 169.657 262.502 170.457C262.193 171.257 261.286 171.656 260.478 171.349L235.948 162.022Z" fill="#001F82"/>
<path d="M229.498 167.762C229.039 167.035 229.263 166.077 229.997 165.624C230.73 165.169 231.697 165.391 232.155 166.117L246.08 188.19C246.538 188.916 246.315 189.874 245.581 190.328C244.848 190.781 243.881 190.561 243.423 189.834L229.498 167.762Z" fill="#001F82"/>
<path d="M220.864 168.503C220.94 167.648 221.699 167.017 222.561 167.091C223.423 167.167 224.061 167.92 223.986 168.773L221.696 194.702C221.621 195.555 220.861 196.187 219.998 196.112C219.137 196.038 218.498 195.285 218.575 194.43L220.864 168.503Z" fill="#001F82"/>
<path d="M213.517 163.947C214.097 163.309 215.087 163.259 215.73 163.832C216.374 164.405 216.425 165.387 215.846 166.023L198.264 185.366C197.685 186.002 196.695 186.054 196.051 185.48C195.408 184.907 195.357 183.925 195.936 183.288L213.517 163.947Z" fill="#001F82"/>
<path d="M210.416 155.928C211.265 155.764 212.087 156.314 212.254 157.156C212.419 157.997 211.863 158.811 211.014 158.975L185.221 163.941C184.372 164.106 183.55 163.555 183.385 162.714C183.219 161.872 183.774 161.057 184.623 160.894L210.416 155.928Z" fill="#001F82"/>
<path d="M220.67 29.9269C220.462 30.7445 219.624 31.2397 218.797 31.033C217.971 30.8263 217.472 29.9963 217.68 29.1787L220.096 19.7176C220.304 18.9 221.142 18.4048 221.968 18.6115C222.795 18.8183 223.295 19.6482 223.086 20.4658L220.67 29.9269Z" fill="#001F82"/>
<path d="M225.276 11.8883C225.067 12.7059 224.229 13.2011 223.402 12.9944C222.577 12.7877 222.077 11.9577 222.286 11.1401L224.701 1.67901C224.91 0.861405 225.748 0.366212 226.573 0.572927C227.399 0.779644 227.9 1.60959 227.691 2.4272L225.276 11.8883Z" fill="#001F82"/>
<path d="M228.799 35.806C228.123 36.3181 227.154 36.1901 226.637 35.5206C226.12 34.8511 226.249 33.8915 226.925 33.3794L234.751 27.4509C235.427 26.9388 236.394 27.0668 236.911 27.7363C237.43 28.4058 237.301 29.3654 236.623 29.8775L228.799 35.806Z" fill="#001F82"/>
<path d="M243.719 24.5024C243.043 25.0146 242.074 24.8865 241.557 24.217C241.04 23.5475 241.169 22.588 241.845 22.0758L249.67 16.1474C250.347 15.6352 251.314 15.7633 251.831 16.4328C252.35 17.1023 252.221 18.0618 251.545 18.574L243.719 24.5024Z" fill="#001F82"/>
<path d="M231.482 45.4146C230.63 45.3992 229.953 44.705 229.967 43.8612C229.983 43.0173 230.683 42.3463 231.535 42.3602L241.386 42.5283C242.238 42.5437 242.915 43.2395 242.901 44.0818C242.885 44.9256 242.183 45.5982 241.333 45.5828L231.482 45.4146Z" fill="#001F82"/>
<path d="M250.264 45.7357C249.412 45.7202 248.734 45.026 248.748 44.1822C248.764 43.3384 249.465 42.6673 250.317 42.6812L260.167 42.8494C261.019 42.8648 261.696 43.5605 261.682 44.4028C261.667 45.2466 260.964 45.9192 260.114 45.9038L250.264 45.7357Z" fill="#001F82"/>
<path d="M227.56 54.5953C226.901 54.06 226.806 53.0974 227.347 52.4464C227.887 51.7939 228.859 51.6997 229.518 52.2351L237.13 58.4273C237.789 58.9626 237.884 59.9252 237.343 60.5762C236.803 61.2287 235.831 61.3228 235.174 60.7875L227.56 54.5953Z" fill="#001F82"/>
<path d="M242.077 66.4024C241.419 65.8671 241.324 64.9044 241.864 64.2534C242.405 63.6009 243.376 63.5068 244.035 64.0421L251.648 70.2343C252.306 70.7696 252.401 71.7322 251.861 72.3832C251.321 73.0358 250.35 73.1299 249.692 72.5946L242.077 66.4024Z" fill="#001F82"/>
<path d="M201.673 39.5879C202.492 39.8177 202.967 40.6631 202.735 41.4745C202.501 42.286 201.649 42.7565 200.83 42.5266L191.353 39.8594C190.534 39.6295 190.059 38.7841 190.291 37.9727C190.523 37.1613 191.377 36.6908 192.196 36.9206L201.673 39.5879Z" fill="#001F82"/>
<path d="M183.604 34.5036C184.423 34.7335 184.898 35.5789 184.666 36.3903C184.433 37.2017 183.581 37.6723 182.762 37.4424L173.285 34.7751C172.466 34.5453 171.991 33.6999 172.223 32.8885C172.455 32.077 173.308 31.6065 174.128 31.8364L183.604 34.5036Z" fill="#001F82"/>
<path d="M208.702 31.2215C209.155 31.9358 208.938 32.8783 208.217 33.3272C207.496 33.7761 206.545 33.5617 206.09 32.8475L200.848 24.585C200.395 23.8708 200.613 22.9282 201.334 22.4793C202.055 22.0304 203.006 22.2448 203.459 22.959L208.702 31.2215Z" fill="#001F82"/>
<path d="M198.706 15.4688C199.159 16.1831 198.942 17.1256 198.221 17.5745C197.5 18.0234 196.549 17.809 196.094 17.0948L190.852 8.8323C190.398 8.11805 190.616 7.17549 191.338 6.72657C192.059 6.27766 193.01 6.49209 193.463 7.20634L198.706 15.4688Z" fill="#001F82"/>
<path d="M229.077 25.841C228.615 26.5491 227.66 26.7527 226.945 26.2945C226.23 25.8364 226.025 24.8923 226.487 24.1826L231.835 15.9881C232.296 15.2784 233.251 15.0763 233.968 15.533C234.682 15.9911 234.886 16.9368 234.425 17.6464L229.077 25.841Z" fill="#001F82"/>
<path d="M237.948 37.7757C237.141 38.0472 236.266 37.6183 235.992 36.8192C235.719 36.0201 236.151 35.1532 236.957 34.8832L246.288 31.7501C247.094 31.4785 247.97 31.9074 248.244 32.7065C248.516 33.5056 248.085 34.3726 247.278 34.6425L237.948 37.7757Z" fill="#001F82"/>
<path d="M237.418 52.5876C236.616 52.3037 236.198 51.4291 236.485 50.6346C236.771 49.8401 237.655 49.4267 238.457 49.7105L247.732 52.9964C248.534 53.2802 248.952 54.1549 248.665 54.9494C248.379 55.7439 247.496 56.1573 246.694 55.8735L237.418 52.5876Z" fill="#001F82"/>
<path d="M197.794 31.1468C198.495 31.625 198.673 32.5753 198.19 33.271C197.707 33.9652 196.746 34.1411 196.045 33.6629L187.932 28.1294C187.229 27.6511 187.053 26.6993 187.536 26.0051C188.019 25.3109 188.978 25.1351 189.68 25.6133L197.794 31.1468Z" fill="#001F82"/>
<path d="M212.671 22.197C212.823 23.0269 212.266 23.8214 211.428 23.9726C210.59 24.1222 209.788 23.5715 209.637 22.7415L207.88 13.14C207.729 12.3101 208.285 11.5156 209.123 11.3644C209.961 11.2133 210.763 11.7655 210.914 12.5955L212.671 22.197Z" fill="#001F82"/>
<path d="M90.8895 145.317C89.6 144.812 88.9677 143.365 89.477 142.089C89.9878 140.81 91.4471 140.184 92.7366 140.69L107.656 146.534C108.947 147.04 109.578 148.484 109.069 149.762C108.558 151.04 107.1 151.666 105.811 151.16L90.8895 145.317Z" fill="#001F82"/>
<path d="M85.3735 152.094C84.3737 151.14 84.3441 149.565 85.305 148.576C86.2659 147.586 87.856 147.555 88.8558 148.508L100.418 159.526C101.418 160.478 101.449 162.053 100.488 163.042C99.5254 164.034 97.9354 164.065 96.9355 163.111L85.3735 152.094Z" fill="#001F82"/>
<path d="M77.6748 156.288C77.1157 155.032 77.6904 153.562 78.9597 153.008C80.2289 152.454 81.71 153.024 82.2707 154.281L88.7431 168.824C89.3038 170.079 88.7291 171.548 87.4599 172.103C86.189 172.657 84.708 172.086 84.1473 170.831L77.6748 156.288Z" fill="#001F82"/>
<path d="M68.9442 157.273C68.9084 155.9 70.0032 154.757 71.3893 154.721C72.7754 154.688 73.9294 155.772 73.9652 157.145L74.3779 173.033C74.4153 174.406 73.3205 175.547 71.9344 175.583C70.5468 175.618 69.3943 174.534 69.3585 173.161L68.9442 157.273Z" fill="#001F82"/>
<path d="M60.4885 154.901C60.9822 153.616 62.4321 152.972 63.7294 153.461C65.0252 153.95 65.6762 155.386 65.1825 156.671L59.4762 171.524C58.9825 172.807 57.5311 173.453 56.2353 172.964C54.9396 172.475 54.2886 171.039 54.7823 169.754L60.4885 154.901Z" fill="#001F82"/>
<path d="M53.5781 149.527C54.5265 148.524 56.1151 148.473 57.1274 149.414C58.1397 150.352 58.191 151.927 57.2426 152.93L46.2693 164.523C45.3208 165.526 43.7308 165.577 42.72 164.637C41.7077 163.698 41.6563 162.123 42.6048 161.121L53.5781 149.527Z" fill="#001F82"/>
<path d="M49.2423 141.955C50.5038 141.384 51.9942 141.935 52.5704 143.184C53.1466 144.434 52.5907 145.91 51.3276 146.481L36.7334 153.079C35.4704 153.651 33.9815 153.101 33.4053 151.85C32.829 150.6 33.385 149.125 34.6465 148.554L49.2423 141.955Z" fill="#001F82"/>
<path d="M48.1355 133.32C49.5216 133.268 50.6881 134.337 50.7426 135.71C50.7955 137.083 49.7162 138.238 48.3302 138.292L32.2985 138.906C30.9109 138.96 29.7459 137.891 29.6914 136.516C29.6369 135.145 30.7177 133.988 32.1038 133.936L48.1355 133.32Z" fill="#001F82"/>
<path d="M50.4204 124.915C51.724 125.387 52.3921 126.816 51.9171 128.106C51.439 129.397 49.9984 130.06 48.6948 129.588L33.6272 124.127C32.3252 123.655 31.6555 122.227 32.1321 120.937C32.6086 119.647 34.0508 118.982 35.3543 119.456L50.4204 124.915Z" fill="#001F82"/>
<path d="M55.7578 118C56.7826 118.927 56.8542 120.499 55.9183 121.514C54.9838 122.529 53.3953 122.599 52.3705 121.673L40.5251 110.955C39.5003 110.028 39.4287 108.456 40.3647 107.441C41.2991 106.426 42.8876 106.355 43.9124 107.282L55.7578 118Z" fill="#001F82"/>
<path d="M118.418 156.787C117.13 156.278 116.504 154.83 117.018 153.554C117.533 152.278 118.994 151.658 120.282 152.167L135.18 158.066C136.468 158.577 137.095 160.024 136.578 161.3C136.066 162.576 134.604 163.196 133.314 162.687L118.418 156.787Z" fill="#001F82"/>
<path d="M106.6 173.121C105.605 172.165 105.581 170.59 106.547 169.604C107.513 168.618 109.103 168.595 110.098 169.552L121.612 180.62C122.607 181.577 122.63 183.152 121.664 184.139C120.699 185.125 119.109 185.148 118.114 184.19L106.6 173.121Z" fill="#001F82"/>
<path d="M89.3983 183.775C88.8454 182.515 89.4279 181.049 90.7003 180.503C91.9711 179.955 93.4506 180.531 94.0035 181.791L100.401 196.366C100.954 197.627 100.372 199.092 99.0992 199.64C97.8269 200.187 96.3474 199.61 95.7945 198.35L89.3983 183.775Z" fill="#001F82"/>
<path d="M69.399 187.147C69.3709 185.774 70.4736 184.638 71.8596 184.611C73.2457 184.583 74.3935 185.674 74.42 187.048L74.7392 202.937C74.7673 204.31 73.6646 205.446 72.2786 205.474C70.8909 205.501 69.7447 204.411 69.7182 203.036L69.399 187.147Z" fill="#001F82"/>
<path d="M49.6082 182.729C50.1113 181.448 51.5659 180.813 52.8585 181.31C54.1511 181.807 54.7927 183.248 54.2913 184.53L48.4838 199.345C47.9823 200.626 46.5262 201.26 45.2335 200.763C43.9409 200.266 43.2993 198.826 43.8023 197.544L49.6082 182.729Z" fill="#001F82"/>
<path d="M32.9995 171.186C33.9557 170.191 35.5458 170.151 36.5503 171.098C37.5548 172.045 37.5937 173.621 36.6391 174.616L25.5785 186.128C24.6223 187.125 23.0338 187.164 22.0277 186.216C21.0232 185.269 20.9842 183.696 21.9405 182.701L32.9995 171.186Z" fill="#001F82"/>
<path d="M22.0758 154.254C23.3419 153.694 24.8277 154.257 25.393 155.51C25.9583 156.766 25.3899 158.236 24.1237 158.797L9.47344 165.278C8.20728 165.838 6.72154 165.275 6.15621 164.021C5.59088 162.767 6.15933 161.295 7.42548 160.735L22.0758 154.254Z" fill="#001F82"/>
<path d="M18.4733 134.478C19.8594 134.438 21.0165 135.518 21.0585 136.891C21.099 138.264 20.0089 139.41 18.6228 139.45L2.58487 139.924C1.20036 139.965 0.0416686 138.885 0.00117665 137.512C-0.0408727 136.139 1.04929 134.992 2.43692 134.952L18.4733 134.478Z" fill="#001F82"/>
<path d="M22.7348 114.831C24.0337 115.315 24.6878 116.75 24.1988 118.035C23.7113 119.322 22.2614 119.971 20.9641 119.487L5.95094 113.882C4.65208 113.398 3.99643 111.963 4.487 110.677C4.97446 109.391 6.42439 108.742 7.72168 109.226L22.7348 114.831Z" fill="#001F82"/>
<path d="M71.5183 123.909C69.4875 120.995 68.0407 118.232 67.1795 115.616C66.3167 113.004 65.5816 109.185 64.9727 104.157H102.418C102.317 104.862 102.266 105.666 102.266 106.57C102.266 109.385 103.153 111.673 104.93 113.43C106.704 115.19 109.014 116.068 111.856 116.068C114.901 116.068 117.488 115.065 119.618 113.054C121.75 111.044 122.815 108.631 122.815 105.816C122.815 103.204 121.901 101.043 120.076 99.3334C118.249 97.6242 115.913 96.7695 113.074 96.7695C111.753 96.7695 110.585 96.8713 109.573 97.0703L112.16 76.4142C113.477 76.7166 114.494 76.8677 115.204 76.8677C117.74 76.8677 119.847 76.1134 121.521 74.6047C123.195 73.0975 124.033 71.1892 124.033 68.8752C124.033 66.6662 123.295 64.8304 121.826 63.3726C120.355 61.9163 118.603 61.1866 116.575 61.1866C111.906 61.1866 109.268 63.9526 108.659 69.4784H73.3451C74.359 63.2476 76.0332 58.2726 78.3677 54.5517C81.1087 50.2307 84.5069 46.7628 88.567 44.148C96.5813 38.721 106.376 36.0059 117.944 36.0059C130.02 36.0059 139.964 38.8212 147.779 44.4504C155.592 50.0811 159.5 57.2158 159.5 65.8609C159.5 71.0874 157.902 75.5364 154.704 79.2033C151.509 82.8748 147.269 85.1101 141.995 85.9139V87.421C147.068 88.3266 151.102 90.7146 154.095 94.5836C157.087 98.4541 158.587 103.155 158.587 108.68C158.587 118.533 154.374 126.473 145.952 132.504C137.528 138.535 126.519 141.55 112.921 141.55C103.686 141.55 95.4927 140.016 88.3381 136.951C81.185 133.886 75.5753 129.54 71.5183 123.909Z" fill="#001F82"/>
<path d="M215.544 121.539H229.092L225.591 150.186H132.129L182.513 105.103C185.455 102.491 187.689 100.406 189.21 98.8462C190.733 97.2896 192.255 95.2533 193.776 92.7403C195.299 90.2289 196.061 87.8162 196.061 85.5022C196.061 82.4879 195.197 80.2263 193.473 78.7176C191.951 77.4125 190.071 76.7584 187.841 76.7584C184.491 76.7584 181.904 78.2656 180.078 81.2815C178.556 83.995 177.794 86.8597 177.794 89.8756H140.654C142.378 77.2104 146.994 67.16 154.505 59.7198C163.13 51.3771 174.952 47.2058 189.972 47.2058C203.873 47.2058 214.681 50.7739 222.393 57.9103C229.395 64.4465 232.896 72.7383 232.896 82.7887C232.896 92.438 229.244 100.731 221.937 107.667C218.589 110.785 214.376 113.799 209.303 116.713C205.346 118.925 200.524 120.988 194.842 122.896L195.299 124.555C198.747 123.348 201.845 122.544 204.585 122.142C207.12 121.741 210.774 121.539 215.544 121.539Z" fill="#001F82"/>
<path d="M171.578 138.585C171.488 138.292 171.22 137.63 171.15 137.143C170.993 136.065 171.566 135.358 172.089 135.199C172.678 135.04 172.903 135.333 173.126 136.014C173.413 137.047 173.438 138.4 173.325 140.336C173.181 142.98 171.824 146.166 168.504 146.079C165.638 145.999 164.381 144.153 164.266 141.345C164.213 140.021 164.316 138.699 164.881 136.833C165.182 135.833 165.445 135.48 166.358 135.293C167.074 135.168 167.004 135.909 166.837 136.782C166.468 138.713 166.295 139.647 166.414 141.842C166.528 144.165 167.597 145.075 168.77 145.083C170.528 145.128 171.32 143.681 171.659 141.584C171.929 139.909 171.739 139.102 171.578 138.585ZM209.061 141.111C209.746 141.115 209.938 141.919 209.771 142.403C209.605 142.885 209.016 143.432 208.103 143.588C207.91 143.101 207.825 141.103 209.061 141.111ZM196.323 142.124C196.328 141.578 196.035 141.124 195.68 141.121C195.384 141.12 194.701 141.438 194.694 142.47C194.688 143.28 194.976 143.665 195.109 143.83C196.052 143.545 196.32 142.77 196.323 142.124ZM186.236 135.481C186.194 134.963 185.786 134.608 185.232 134.605C184.613 134.602 184.028 135.239 184.084 136.048C184.121 136.58 184.434 137.019 185.057 137.024C185.771 137.029 186.297 136.225 186.236 135.481ZM191.52 137.41C191.469 136.507 191.251 136.098 190.762 136.128C190.112 136.163 189.801 138.183 189.919 140.308C189.996 141.695 190.201 141.91 190.396 141.897C190.756 141.879 191.631 139.407 191.52 137.41ZM213.101 140.941C212.687 142.596 211.447 145.029 209.622 145.017C209.2 145.013 208.451 144.847 208.454 144.427C208.457 143.975 211.326 143.931 211.338 141.768C211.344 140.962 210.603 139.827 209.494 139.821C208.029 139.812 206.59 141.385 206.576 143.577C206.563 145.544 207.792 146.197 209.028 146.204C211.179 146.218 212.494 144.483 213.185 143.037C213.507 144.008 213.685 146.234 214.503 146.24C214.827 146.241 215.057 146.081 215.454 145.214C216.442 143.057 217.403 140.58 218.708 140.588C219.193 140.591 218.898 141.462 220.069 141.47C220.62 141.473 221.014 141.024 221.017 140.504C221.022 139.762 220.343 139.179 219.301 139.173C216.239 139.153 215.562 143.699 215.073 143.694C214.258 143.69 214.542 140.046 213.954 140.043C213.433 140.04 213.173 140.652 213.101 140.941ZM187.024 144.648C187.513 144.651 188.353 144.5 189.021 143.455C188.649 142.622 188.388 140.941 188.356 140.33C188.181 137.201 189.416 134.267 190.748 134.195C191.724 134.142 192.5 135.062 192.579 136.546C192.796 140.443 191.475 142.062 190.81 143.462C190.916 144.006 191.843 144.938 192.721 144.942C193.047 144.946 193.441 144.787 193.539 144.656C193.475 144.432 193.411 144.14 193.414 143.721C193.428 141.462 194.906 139.568 196.175 139.576C197.186 139.582 197.764 140.907 197.758 141.78C197.751 142.811 196.865 143.647 195.559 144.444C195.786 144.669 196.207 144.836 196.566 144.838C198.424 144.85 199.412 142.63 200.144 140.6C200.276 140.213 200.508 139.668 200.963 139.671C201.745 139.676 202.039 144.774 203.338 144.782C203.894 144.787 204.356 143.659 204.361 142.79C204.366 142.144 204.138 142.078 204.145 141.141C204.151 140.111 204.71 139.244 205.46 139.249C205.917 139.252 206.079 139.702 206.074 140.25C206.062 142.315 204.537 146.144 202.325 146.13C200.661 146.121 200.809 143.283 200.225 143.28C199.569 143.275 198.639 146.14 195.418 146.12C194.895 146.116 194.344 145.856 193.892 145.334C193.109 145.848 192.455 146.069 191.706 146.064C190.502 146.058 189.988 144.828 189.5 144.825C188.912 144.821 188.255 146.075 186.298 146.062C184.736 146.053 184.489 143.989 183.936 143.986C183.447 143.983 182.684 146.041 181.871 146.035C180.502 146.027 180.234 142.445 179.027 142.437C178.083 142.431 175.076 146.049 174.266 145.961C173.941 145.925 173.805 145.683 173.841 145.361C173.891 144.915 174.286 143.722 174.447 143.158C174.716 142.18 174.965 141.106 175.102 140.763C175.238 140.418 175.601 140.174 175.89 140.202C176.037 140.217 176.079 140.487 176.124 140.711C176.283 141.51 176.507 142.325 176.767 142.326C177.224 142.328 178.753 139.466 179.631 139.472C180.709 139.478 180.809 143.997 182.273 144.006C182.763 144.009 183.126 143.431 183.455 142.721C183.495 141.526 183.832 139.822 184.808 139.829C185.493 139.833 185.809 141.35 185.311 142.67C185.302 144.25 186.339 144.643 187.024 144.648Z" fill="white"/>
</svg>
