<svg width="32" height="32" viewBox="0 0 32 32" fill="none" xmlns="http://www.w3.org/2000/svg">
<path d="M13.67 14.85C14.2833 14.95 14.7533 15.18 15.08 15.54C15.4067 15.8933 15.57 16.3333 15.57 16.86C15.57 17.2667 15.4633 17.6433 15.25 17.99C15.0367 18.33 14.71 18.6033 14.27 18.81C13.8367 19.0167 13.3033 19.12 12.67 19.12C12.1767 19.12 11.69 19.0567 11.21 18.93C10.7367 18.7967 10.3333 18.61 10 18.37L10.63 17.13C10.8967 17.33 11.2033 17.4867 11.55 17.6C11.9033 17.7067 12.2633 17.76 12.63 17.76C13.0367 17.76 13.3567 17.6833 13.59 17.53C13.8233 17.37 13.94 17.1467 13.94 16.86C13.94 16.2867 13.5033 16 12.63 16H11.89V14.93L13.33 13.3H10.35V12H15.25V13.05L13.67 14.85Z" fill="#3d3d3d"/>
<path d="M21.648 15.35C22.0746 15.4767 22.4013 15.6833 22.628 15.97C22.8546 16.2567 22.968 16.61 22.968 17.03C22.968 17.65 22.7313 18.1333 22.258 18.48C21.7913 18.8267 21.1213 19 20.248 19H16.798V12H20.058C20.8713 12 21.5046 12.1567 21.958 12.47C22.4113 12.7833 22.638 13.23 22.638 13.81C22.638 14.1567 22.5513 14.4633 22.378 14.73C22.2046 14.99 21.9613 15.1967 21.648 15.35ZM18.408 14.9H19.918C20.2713 14.9 20.538 14.83 20.718 14.69C20.898 14.5433 20.988 14.33 20.988 14.05C20.988 13.7767 20.8946 13.5667 20.708 13.42C20.528 13.2733 20.2646 13.2 19.918 13.2H18.408V14.9ZM20.188 17.8C20.948 17.8 21.328 17.5 21.328 16.9C21.328 16.32 20.948 16.03 20.188 16.03H18.408V17.8H20.188Z" fill="#3d3d3d"/>
<path d="M29 8L29.5 8L29.5 7.5L29 7.5L29 8ZM29 24L31.8868 19L26.1132 19L29 24ZM25 8.5L29 8.5L29 7.5L25 7.5L25 8.5ZM28.5 8L28.5 19.5L29.5 19.5L29.5 8L28.5 8Z" fill="#3d3d3d"/>
</svg>
