<svg width="32" height="32" viewBox="0 0 32 32" fill="none" xmlns="http://www.w3.org/2000/svg">
<path d="M16.6267 17.53H15.4867V19H13.9067V17.53H10.1367V16.44L13.4367 12H15.1367L12.0767 16.21H13.9567V14.9H15.4867V16.21H16.6267V17.53Z" fill="#3d3d3d"/>
<path d="M22.4412 15.35C22.8679 15.4767 23.1946 15.6833 23.4213 15.97C23.6479 16.2567 23.7613 16.61 23.7613 17.03C23.7613 17.65 23.5246 18.1333 23.0513 18.48C22.5846 18.8267 21.9146 19 21.0413 19H17.5912V12H20.8512C21.6646 12 22.2979 12.1567 22.7513 12.47C23.2046 12.7833 23.4312 13.23 23.4312 13.81C23.4312 14.1567 23.3446 14.4633 23.1713 14.73C22.9979 14.99 22.7546 15.1967 22.4412 15.35ZM19.2013 14.9H20.7113C21.0646 14.9 21.3313 14.83 21.5113 14.69C21.6913 14.5433 21.7812 14.33 21.7812 14.05C21.7812 13.7767 21.6879 13.5667 21.5013 13.42C21.3213 13.2733 21.0579 13.2 20.7113 13.2H19.2013V14.9ZM20.9812 17.8C21.7412 17.8 22.1213 17.5 22.1213 16.9C22.1213 16.32 21.7412 16.03 20.9812 16.03H19.2013V17.8H20.9812Z" fill="#3d3d3d"/>
<path d="M29 8L29.5 8L29.5 7.5L29 7.5L29 8ZM29 24L31.8868 19L26.1132 19L29 24ZM25 8.5L29 8.5L29 7.5L25 7.5L25 8.5ZM28.5 8L28.5 19.5L29.5 19.5L29.5 8L28.5 8Z" fill="#3d3d3d"/>
</svg>
