<svg width="32" height="32" viewBox="0 0 32 32" fill="none" xmlns="http://www.w3.org/2000/svg">
<path d="M12.8619 15.07C13.8485 15.07 14.5752 15.2667 15.0419 15.66C15.5152 16.0533 15.7519 16.58 15.7519 17.24C15.7519 17.6667 15.6452 18.0567 15.4319 18.41C15.2185 18.7567 14.8919 19.0367 14.4519 19.25C14.0185 19.4567 13.4819 19.56 12.8419 19.56C12.3485 19.56 11.8619 19.4967 11.3819 19.37C10.9085 19.2367 10.5052 19.05 10.1719 18.81L10.8119 17.57C11.0785 17.77 11.3852 17.9267 11.7319 18.04C12.0785 18.1467 12.4352 18.2 12.8019 18.2C13.2085 18.2 13.5285 18.12 13.7619 17.96C13.9952 17.8 14.1119 17.5767 14.1119 17.29C14.1119 16.99 13.9885 16.7633 13.7419 16.61C13.5019 16.4567 13.0819 16.38 12.4819 16.38H10.6919L11.0519 12.44H15.3219V13.74H12.4019L12.2919 15.07H12.8619Z" fill="#3d3d3d"/>
<path d="M21.8191 13.76H18.4891L18.4991 19.44H16.8891V12.44H21.8291L21.8191 13.76Z" fill="#3d3d3d"/>
<path d="M8 4V3.5H7.5V4H8ZM24 4L19 1.11325V6.88675L24 4ZM8.5 8V4H7.5V8H8.5ZM8 4.5H19.5V3.5H8V4.5Z" fill="#3d3d3d"/>
</svg>
