<svg width="18" height="14" viewBox="0 0 18 14" fill="none" xmlns="http://www.w3.org/2000/svg">
<path d="M5 5L7.3536 6.39172C8.7256 7.20276 9.2736 7.20276 10.6464 6.39172L13 5" stroke="#0A2052" stroke-opacity="0.6" stroke-linecap="round" stroke-linejoin="round"/>
<path d="M1.01343 8.04156C1.06543 10.2051 1.09183 11.2872 1.99659 12.0884C2.90136 12.8902 4.16051 12.9178 6.67961 12.9735C8.23155 13.0088 9.76908 13.0088 11.321 12.9735C13.8401 12.9178 15.0993 12.8902 16.004 12.0884C16.9088 11.2872 16.9352 10.2051 16.988 8.04156C17.004 7.34556 17.004 6.6538 16.988 5.9578C16.9352 3.79429 16.9088 2.71217 16.004 1.911C15.0993 1.10913 13.8401 1.0816 11.321 1.02583C9.77413 0.991388 8.2265 0.991388 6.67961 1.02583C4.16051 1.0816 2.90136 1.10913 1.99659 1.911C1.09183 2.71217 1.06543 3.79429 1.01263 5.9578C0.99579 6.65231 0.99659 7.34705 1.01343 8.04156Z" stroke="#0A2052" stroke-opacity="0.6" stroke-linecap="round" stroke-linejoin="round"/>
</svg>
