<svg width="1440" height="369" viewBox="0 0 1440 369" fill="none" xmlns="http://www.w3.org/2000/svg">
<path d="M0 0.999961C0 0.999961 478.167 298.802 1439 256.998" stroke="#422918" stroke-width="0.816" stroke-miterlimit="10"/>
<path d="M1029.98 267.354C1032.61 268.732 1035.88 267.702 1037.25 265.075C1038.63 262.442 1037.61 259.165 1034.98 257.789C1032.34 256.408 1029.06 257.439 1027.69 260.067C1026.32 262.694 1027.34 265.976 1029.98 267.354ZM1058.7 270.584C1061.7 264.846 1061.07 264.896 1062.01 263.1C1062.94 261.309 1064.08 261.746 1064.8 262.124C1067.43 263.502 1067.6 271.06 1062.16 281.453C1058.98 287.555 1053.81 289.573 1049.66 288.771C1050.36 296.747 1049.08 307.65 1044.39 316.62C1031.58 341.129 1017.68 341.775 1010.23 347.621C1004.53 352.106 1004.99 363.761 984.445 369C985.681 367.512 986.989 365.301 987.929 363.505C993.674 352.514 991.366 343.843 982.754 339.337C981.675 338.774 980.432 338.276 979.297 337.831C982.363 335.169 992.088 330.515 1003.18 334.031C1004.5 334.419 1008.14 330.082 1009.76 326.975C1012.01 322.668 1013.09 316.227 1006.49 311.709C1012.79 296.731 1009.37 282.605 999.675 274.937C1004.03 270.681 1011.76 267.262 1014.9 267.078C1015.25 264.671 1016.14 262.094 1017.57 259.342C1019.58 255.519 1022.54 251.584 1026.79 247.261C1025.35 246.206 1023.56 244.964 1024.82 242.569C1026.69 238.984 1030.14 242.008 1033.02 241.997C1034.53 242.021 1036.81 239.402 1039.2 240.652C1041.48 241.844 1041.31 244.208 1040.69 245.398C1040.44 245.878 1040 246.412 1039.7 246.711C1039.29 249.535 1056.43 258.658 1051.18 268.705C1047.3 276.118 1037.65 279.741 1028.44 278.737C1025.73 278.387 1023.36 279.424 1022.48 281.099C1021.49 283.009 1021.28 284.273 1022.61 287.858C1026.28 297.997 1026.74 311.949 1019.81 325.22C1017.68 329.29 1015.64 332.327 1015.2 333.167C1014.95 333.647 1015.07 333.707 1015.18 333.77C1016.02 334.208 1021.38 331.835 1026 322.984C1037 301.944 1027.86 290.603 1029.61 287.261C1029.86 286.78 1030.6 285.35 1032.95 285.514C1046.98 286.607 1055.2 277.28 1058.7 270.584Z" fill="#005EEF"/>
<path d="M123.317 61.116C84.0686 109.333 91.9469 128.114 91.9469 128.114L122.068 121.179L145.138 142.081C145.138 142.081 178.537 94.7231 188.194 85.0543C146.136 68.9723 128.589 63.4217 123.317 61.116Z" fill="#FCA6DE"/>
<path d="M440.704 196.928C452.565 196.917 461.458 191.55 461.454 188.331C461.454 187.276 459.831 186.473 456.328 186.477C452.818 186.48 445.812 186.219 432.602 184.085C421.267 182.224 412.645 177.943 409.409 177.947C408.327 177.947 407.79 178.485 407.79 179.284C407.797 186.254 420.747 196.946 440.704 196.928ZM381.956 162.981C385.37 160.699 400.556 164.301 420.178 154.639C422.599 153.316 425.026 152.767 427.177 152.767C436.617 152.76 434.193 163.47 442.833 163.463C449.561 163.455 458.19 157.82 463.323 157.816C471.344 157.809 482.956 182.971 482.967 194.745C482.977 208.398 462.291 216.719 437.753 216.744C401.955 216.772 380.354 185.741 380.336 165.66C380.336 164.05 381.151 163.516 381.956 162.981Z" fill="#EB0000"/>
<path d="M1314.17 260.829C1312.59 336.119 1320.56 349.289 1320.56 349.289L1342.08 313.53L1366.86 339.446C1366.86 339.446 1364.16 275.319 1365.78 259.348C1326.37 261.271 1319.28 260.923 1314.17 260.829Z" fill="#EB0000"/>
<path d="M743.855 225.953C748.763 225.948 747.724 195.854 755.677 195.845C757.557 195.843 758.14 197.727 758.14 200.043C758.147 206.843 754.827 216.827 754.831 222.32C754.833 225.073 755.558 225.944 756.859 225.941C760.336 225.937 766.373 192.795 772.302 192.79C774.182 192.788 775.05 194.674 775.05 196.555C775.057 203.496 766.259 223.47 766.265 229.109C766.265 229.977 766.552 230.7 767.277 230.7C770.891 230.696 778.105 215.07 780.409 207.256C781.706 203.199 783.44 201.026 785.035 201.024C786.48 201.024 787.783 202.616 787.787 205.947C787.794 213.757 780.575 232.137 774.229 244.445C769.325 253.994 761.675 267.737 761.682 275.405C761.687 279.311 762.405 283.358 768.051 288.277C758.797 287.707 755.035 286.842 751.563 279.614C736.122 310.446 780.07 307.366 765.054 334.715C762.301 329.807 740.615 324.761 740.588 296.113C740.566 271.378 762.236 256.888 762.227 246.618C762.225 244.598 761.507 242.86 759.625 241.271C754.845 237.219 754.697 233.899 750.944 233.901C748.193 233.906 744.871 240.272 748.348 245.906C749.51 247.788 750.522 248.944 750.522 250.683C750.526 254.728 744.173 265.582 739.698 265.584C735.211 265.591 731.739 254.466 731.721 236.519C731.71 220.603 735.301 204.546 739.785 204.542C741.084 204.54 741.519 205.408 741.522 206.567C741.522 208.448 740.95 212.208 740.954 218.567C740.961 225.373 742.551 225.955 743.855 225.953Z" fill="#008651"/>
<path d="M1192.41 233.508C1185.16 233.513 1184.83 242.293 1184.85 259.984C1179.44 248.362 1170.49 235.889 1160.03 235.899C1152.95 235.907 1150.26 240.631 1150.26 248.884C1150.27 250.573 1150.43 253.109 1150.78 254.614C1151.62 251.756 1154.32 250.571 1157.69 250.566C1164.94 250.561 1173.72 256.113 1179.46 263.7C1172.88 262.527 1166.46 261.349 1161.07 261.354C1157.7 261.357 1154.66 261.696 1152.13 262.882C1147.24 265.068 1140.67 272.33 1140.68 283.29C1140.68 284.978 1140.85 286.824 1141.19 288.848C1147.08 275.691 1162.76 269.779 1172.88 269.769C1174.91 269.769 1176.42 269.936 1177.6 270.103C1172.38 274.822 1171.21 283.09 1170.88 288.65C1170.71 291.351 1169.7 291.523 1167.84 291.525C1167.85 297.081 1172.24 305.343 1172.25 309.553C1172.25 311.073 1171.4 312.423 1170.56 312.763C1170.57 320.177 1177.99 325.567 1178 330.284C1178 331.464 1177.66 332.478 1177.15 332.987C1177.66 336.021 1185.83 341.118 1186.89 343.674C1188.19 346.787 1189.64 347.309 1190.49 347.309C1193.36 347.304 1197.9 343.925 1197.9 340.887C1197.9 339.877 1197.05 338.696 1196.39 338.192C1193.18 335.842 1191.48 330.781 1190.13 327.414C1188.95 327.417 1187.42 326.92 1186.89 324.932C1185.96 321.446 1185.91 314.941 1184.55 311.061C1182.36 310.562 1181.35 309.715 1181.34 305.171C1181.34 302.975 1182.68 294.375 1182.68 291.341C1181.67 291.341 1180.32 290.669 1180.32 288.643C1180.32 283.255 1185.71 279.03 1187.21 272.12C1196.84 279.189 1199.2 286.431 1199.21 292.845C1199.21 296.209 1198.71 299.419 1198.03 302.456C1205.12 298.904 1215.74 293.674 1215.73 283.05C1215.73 276.808 1212.85 269.903 1193.79 267.218C1199.69 265.022 1207.12 263.842 1213.35 263.836C1224.14 263.826 1230.39 267.185 1231.74 274.769C1233.93 271.403 1235.62 267.52 1235.62 263.983C1235.61 255.718 1228.68 250.335 1219.92 250.345C1209.63 250.353 1200.52 255.748 1190.75 262.339C1195.13 253.233 1198.15 247.84 1203.56 247.833C1204.4 247.833 1205.25 248.002 1206.09 248.167C1204.06 240.755 1196.46 233.505 1192.41 233.508Z" fill="#00A889"/>
<path d="M581.039 196.058C546.229 258.483 558.895 278.171 558.895 278.171L591.61 264.302L621.897 283.354C621.897 283.354 650.255 223.069 659.259 210.194C608.439 200.392 587.467 197.615 581.039 196.058Z" fill="#00D7C4"/>
<path d="M285.975 135.672C285.98 139.399 289.034 142.445 292.768 142.441C296.491 142.438 299.538 139.384 299.538 135.66C299.533 131.943 296.476 128.896 292.755 128.899C289.022 128.904 285.97 131.955 285.975 135.672ZM277.149 120.456C277.151 124.176 280.206 127.217 283.932 127.217C287.665 127.212 290.712 124.161 290.709 120.444C290.704 116.72 287.652 113.673 283.919 113.676C280.193 113.681 277.144 116.732 277.149 120.456ZM271.092 166.819C267.189 167.837 259.064 172.583 259.071 181.04C259.076 187.129 263.817 191.02 269.759 191.015C272.811 191.012 275.007 190.332 276.362 189.316C271.616 184.755 269.919 179.678 269.911 174.606C269.909 171.048 270.413 168.851 271.092 166.819ZM229.572 169.227C229.407 170.074 229.407 170.918 229.41 171.763C229.417 179.714 233.65 184.114 239.242 184.106C243.469 184.104 248.393 181.561 252.788 175.968C250.931 176.305 248.725 176.476 246.691 176.479C240.422 176.484 233.64 174.807 229.572 169.227ZM223.65 184.291C223.663 197.145 227.566 203.236 234.515 203.231C239.936 203.226 247.222 199.322 255.854 191.872C249.249 193.403 244.161 194.425 239.589 194.427C233.49 194.432 228.746 192.065 223.65 184.291ZM267.487 116.573C268.33 113.857 269.004 110.484 269.004 106.755C268.994 98.6389 265.251 86.2879 253.725 86.2977C247.119 86.3027 242.37 91.5489 242.375 97.814C242.387 111.184 255.788 116.582 267.487 116.573ZM253.11 159.225C247.525 159.23 241.416 152.3 241.414 146.035C241.409 142.657 243.944 138.419 245.806 138.417C246.485 138.417 246.824 138.928 246.996 140.113C248.022 148.399 253.447 153.137 258.537 155.496C259.049 155.832 259.386 156.002 259.386 156.338C259.388 157.524 256.164 159.223 253.11 159.225ZM268.692 138.567C269.865 140.16 273.106 142.121 273.106 143.305C273.106 145.664 271.753 148.718 269.038 148.723C263.104 148.725 258.353 139.762 258.35 134.683C258.346 131.472 260.212 131.133 262.748 131.131C263.935 131.128 264.442 131.297 265.293 131.808C266.818 132.65 266.823 136.028 268.692 138.567ZM228.886 159.586C228.569 160.104 228.38 160.769 228.38 161.449C228.382 162.972 230.079 164.663 231.596 164.661C232.956 164.661 233.802 164.322 234.481 164.319C238.544 164.317 243.118 167.187 249.736 167.179C253.629 167.177 258.208 165.984 263.965 163.109C276.163 157.004 280.902 141.945 280.899 139.404C280.894 136.185 278.305 136.608 276.141 133.647C273.977 130.703 274.8 128.091 273.421 126.716C272.636 125.924 270.206 125.874 267.15 125.536C266.129 125.425 264.776 125.369 263.419 125.371C257.834 125.379 251.204 126.068 243.765 130.809C229.071 140.187 231.247 155.688 228.886 159.586ZM285.146 152.769C281.421 157.168 277.528 164.621 277.533 172.229C277.542 181.362 283.147 188.97 291.791 188.962C300.094 188.955 303.987 181.848 303.982 174.574C303.972 163.242 293.626 155.29 285.146 152.769ZM248.845 120.314C248.845 120.314 243.932 124.033 237.83 124.038C230.554 124.045 224.779 118.64 224.769 111.029C224.767 105.783 227.472 100.367 233.741 97.652C233.571 98.6684 233.571 99.5129 233.573 100.532C233.581 110.175 239.013 117.442 248.845 120.314Z" fill="#FFC000"/>
<path d="M863.964 240.354L833.771 317.505L875.305 300.131L886.329 332.22C886.329 332.22 919.684 274.919 923.061 247.689C885.875 245.122 863.964 240.354 863.964 240.354Z" fill="#E60067"/>
</svg>
