<svg width="1439" height="178" viewBox="0 0 1439 178" fill="none" xmlns="http://www.w3.org/2000/svg">
<path d="M0.000276285 0.888029C0.000276285 0.888029 673.586 163.404 1436.75 14.1894" stroke="#422918" stroke-width="0.558667" stroke-miterlimit="10"/>
<path d="M700.592 136.795C702.095 131.987 703.2 126.961 703.113 122.188C703.086 120.586 702.866 119.388 702.637 117.596L705.225 117.549C720.948 117.26 727.609 110.934 728.755 110.914C729.755 110.897 730.956 111.468 731.022 115.075C731.103 119.473 729.218 125.292 722.179 130.018M729.995 91.1024C731.584 89.7004 731.918 87.4725 731.878 85.2692L731.794 80.6667C731.69 74.8726 722.911 71.6495 710.964 71.8661C696.433 72.1343 688.786 78.8493 688.837 81.6564L689.004 90.8499C689.074 94.6527 697.906 98.2919 708.655 98.0962C717.217 97.9384 724.94 95.6003 729.995 91.1024ZM740.385 93.1191C735.282 97.2145 723.343 106.409 703.234 106.776C692.485 106.972 687.641 103.662 686.047 103.692C684.055 103.727 681.901 105.767 679.761 108.41C675.133 114.094 669.15 124.605 669.355 135.984C669.501 143.974 675.814 151.837 687.314 151.626C724.547 150.945 751.952 127.069 751.61 108.099C751.415 97.315 744.971 93.0349 740.385 93.1191Z" fill="#9C44C0"/>
<path d="M270.48 37.3802C276.058 56.4727 300.564 42.4804 304.274 66.1092C304.819 69.5526 304.696 74.7528 305.38 79.1016C306.174 84.1573 307.316 88.4454 311.152 87.8341C315.033 87.2203 315.522 84.3244 314.946 80.6461C314.37 76.9723 312.727 72.5371 312.333 70.0134C311.07 61.9728 316.502 59.2417 319.932 58.6966C328.62 57.3208 336.652 65.2152 349.686 63.1499C349.017 78.3043 318.228 79.1832 320.751 95.2531C322.013 103.289 330.299 103.843 335.561 103.009C340.365 102.25 341.855 101.305 341.209 97.183C340.848 94.8848 339.988 92.4345 339.737 90.827C339.591 89.9066 340.14 88.879 341.282 88.6966C346.315 87.9013 373.9 102.814 374.802 108.558C375.63 113.823 350.451 123.225 342.908 124.418C340.62 124.783 339.91 123.248 339.767 122.334C339.517 120.729 342.64 115.291 342.209 112.543C341.884 110.481 338.245 109.642 329.096 111.093C324.753 111.78 321.623 112.746 322.164 116.199C323.136 122.38 334.391 128.36 335.29 134.088C336.014 138.678 333.699 141.868 326.381 143.03C320.21 144.007 310.123 140.658 308.864 132.638C307.856 126.213 313.437 118.753 312.822 114.852C312.642 113.7 311.483 112.002 308.738 112.437C300.282 113.779 301.526 136.613 271.99 143.884C276.108 138.772 279.456 133.299 277.908 123.444C277.153 118.625 275.404 114.893 274.575 109.629C273.493 102.743 276.14 98.7851 280.71 98.0629C289.158 96.7249 295.145 108 300.644 107.127C303.624 106.655 306.385 103.408 305.735 99.2776C302.996 81.8369 270.032 89.6466 266.173 65.0977C265.13 58.4413 266.108 49.8262 270.48 37.3802Z" fill="#008651"/>
<path d="M387.352 87.007C388.376 92.7123 391.397 99.0137 397.089 97.9801C401.869 97.1134 404.658 89.0695 403.22 81.061C401.576 71.9181 398.708 65.1145 398.051 61.4522C397.762 59.8605 398.325 59.0527 399.234 58.8888C402.697 58.498 407.565 67.291 411.212 66.6285C415.309 65.8851 420.056 57.2287 422.558 56.775C423.242 56.6518 423.628 57.5267 423.668 57.751C424.287 61.1864 420.406 69.6865 420.938 72.6491C421.389 75.1608 434.683 73.2239 435.094 75.5136C435.71 78.9449 421.869 81.4552 415.799 85.6269C409.915 89.5175 406.653 93.6528 407.475 98.2277C408.297 102.803 413.018 102.882 419.398 101.724C434.607 98.9649 443.82 88.8062 447.231 88.1886C447.914 88.0654 448.448 88.4367 448.571 89.1231C448.982 91.4105 442.599 100.355 443.215 103.784C443.911 107.666 458.857 109.666 459.039 111.999C458.934 112.724 458.059 113.118 456.467 113.405C453.956 113.861 449.97 113.883 447.005 114.42C445.186 114.748 443.632 115.262 443.105 116.299C441.864 118.419 446.072 130.163 442.899 130.737C439.935 131.277 427.348 105.713 409.868 108.882C407.361 109.336 405.908 111.721 406.526 115.152C408.168 124.288 418.939 133.19 428.268 136.694C432.538 138.522 439.371 139.882 439.619 141.255C440.109 143.988 425.13 144.116 425.951 148.681C426.69 152.801 429.625 158.653 430.279 162.297C430.486 163.443 430.5 164.85 429.136 165.096C426.404 165.592 417.534 154.228 414.349 154.805C411.621 155.302 407.055 163.904 404.538 164.363C403.866 164.484 403.286 163.883 403.165 163.208C402.22 157.949 408.512 144.534 406.414 132.873C405.431 127.384 402.612 115.624 395.997 116.824C390.539 117.816 385.947 127.609 384.773 136.799C384.086 142.111 388.716 161.338 385.071 162C381.651 162.619 380.221 149.423 375.665 150.25C372.305 150.86 366.125 158.346 363.62 158.798C363.165 158.883 362.664 158.739 362.583 158.282C362.091 155.545 367.091 145.427 366.764 143.599C366.148 140.174 351.041 142.448 350.545 139.699C350.256 138.097 355.97 135.884 361.271 133.974C372.473 129.814 388.032 118.268 385.898 106.391C383.517 93.1349 369.733 89.7239 360.372 85.7538C355.55 83.7919 350.359 82.3851 350.032 80.557C349.702 78.7227 355.172 77.7316 357.444 77.3194C360.858 76.7014 364.19 75.8596 363.698 73.1191C363.324 71.0542 362.126 67.0355 361.552 63.833C361.14 61.5433 361.038 59.6701 361.956 59.5046C365.367 58.887 372.164 69.2189 374.446 68.8073C378.085 68.1464 381.451 58.0953 384.874 57.4757C386.004 57.2719 386.584 57.8757 386.954 59.9321C388.474 68.3843 385.869 78.7657 387.352 87.007Z" fill="#008651"/>
<path d="M1284.73 39.5387L1283.85 123.646L1316.89 92.1877L1338.81 118.672C1338.81 118.672 1351.97 56.4542 1345.4 29.3937C1309.58 36.6024 1284.73 39.5387 1284.73 39.5387Z" fill="#E60067"/>
<path d="M558.691 55.4728C573.928 55.1933 586.48 74.8623 586.901 98.123C587.348 122.891 576.253 150.036 555.927 168.756C554.876 127.469 504.799 141.544 504.257 111.563C504.024 98.7181 513.02 89.9742 524.001 89.7715C533.755 89.5962 541.422 92.2135 547.012 97.6295C541.427 92.5227 538.549 85.2251 538.422 78.1949C538.21 66.5541 545.337 55.7167 558.691 55.4728Z" fill="#EB0000"/>
<path d="M141.666 26.9152C123.813 96.7481 128.731 110.578 128.731 110.578L157.441 81.471L175.966 110.46C175.966 110.46 187.229 50.1916 192.26 35.6255C153.448 29.7121 146.617 28.0011 141.666 26.9152Z" fill="#FF544F"/>
<path d="M841.221 74.2707C834.829 90.3364 831.329 158.201 831.329 158.201L844.697 147.111L864.53 169.591C864.53 169.591 862.269 115.674 884.351 75.073C863.033 76.1086 841.221 74.2707 841.221 74.2707Z" fill="#FFC000"/>
<path d="M1004.14 160.68C998.222 157.029 993.236 145.222 995.421 141.654C997.235 138.687 1000.96 138.802 1003.12 140.135C1008.05 143.178 1013.16 154.784 1010.01 159.93C1009.16 161.322 1007.08 162.497 1004.14 160.68ZM976.267 82.4363C989.618 96.096 992.292 109.474 987.691 120.551C983.348 131.208 980.472 140.355 981.791 146.618C983.33 155.208 989.967 166.095 998.45 171.324C1005.54 175.698 1012.68 176.864 1016.68 170.328C1021.04 163.194 1021.19 141.213 1007 132.459C1005.63 131.613 1003.73 130.72 1001.76 129.505C999.98 128.41 997.664 126.431 996.931 124.071C995.484 119.356 1003.57 103.902 1003.1 91.347C1002.65 77.4449 997.256 70.2908 987.604 64.3365C980.713 60.087 970.727 59.098 967.335 64.6451C965.274 68.0153 965.594 71.4787 976.267 82.4363Z" fill="#00A889"/>
<path d="M1137.66 155.343C1141.09 153.899 1145.23 161.993 1147.92 166.634C1149.42 169.032 1149.94 169.066 1151.01 168.616C1153.57 167.534 1153.5 155.978 1156.23 154.822C1160.28 153.114 1175.91 159.873 1194.05 152.226C1219.83 141.35 1236.54 112.879 1223.11 80.7686C1210.13 49.7137 1180.75 40.6915 1150.71 53.3656C1136.42 59.3928 1128.91 70.8717 1123.36 73.2128C1120.09 74.8446 1111.39 68.447 1108.83 69.5263C1107.76 69.9769 1107.59 72.558 1109.11 76.2047C1110.1 78.5612 1113.23 86.0509 1110.67 87.1302C1105.53 89.2977 1079.54 82.8899 1081.78 88.2377C1083.84 93.1677 1103.32 102.584 1104.93 106.436C1106.54 110.289 1095.06 119.422 1096.13 121.991C1098.1 126.697 1112.32 121.708 1114.82 127.709C1117.33 133.699 1104.8 144.534 1106.68 149.034C1108.2 152.667 1121.63 143.99 1123.51 148.48C1125.39 152.976 1121 172.459 1122.79 176.734C1123.24 177.81 1123.45 177.722 1124.3 177.363C1128.34 175.656 1134.67 156.605 1137.66 155.343ZM1129.19 117.617C1128.2 115.26 1117.99 114.282 1116.92 111.713C1116.74 111.286 1117.07 110.891 1117.71 110.62C1120.07 109.627 1124.48 108.775 1127.68 107.426C1130.46 106.252 1125.87 94.081 1127.96 93.2C1129.45 92.5713 1136.75 102.843 1139.11 101.849C1141.88 100.68 1145.65 95.3042 1147.79 94.4007C1148.22 94.2227 1148.73 94.2548 1148.91 94.6909C1149.54 96.1911 1146.62 104.212 1147.34 105.929C1148.14 107.859 1161.08 105.173 1161.8 106.888C1162.69 109.034 1150.44 113.95 1151.24 115.877C1151.87 117.366 1158.86 121.477 1159.66 123.404C1159.84 123.835 1159.72 124.142 1159.3 124.32C1157.59 125.044 1149.72 124.828 1147.8 125.637C1145.45 126.628 1145.32 137.008 1143.4 137.819C1142.76 138.09 1141.98 137.407 1141.53 136.336L1137.52 127.958C1137.16 127.101 1136.38 126.418 1135.31 126.871C1132.75 127.951 1127.75 129.807 1126.25 130.442C1125.18 130.893 1124.67 130.858 1124.49 130.429C1123.77 128.714 1129.81 119.117 1129.19 117.617ZM1187.76 140.769C1172.82 147.074 1159.88 143.721 1158.26 139.86C1157.46 137.932 1158.2 136.115 1159.91 135.392C1164.6 133.414 1177.88 136.367 1181.3 134.925C1182.15 134.567 1182.62 133.876 1182.08 132.591C1180.46 128.727 1174.16 123.836 1172.81 120.637C1172.46 119.774 1172.83 118.864 1174.11 118.323C1179.86 115.896 1189.39 114.655 1193.87 112.762C1195.36 112.133 1195.43 111.097 1195.07 110.236C1193.09 105.523 1175.38 102.168 1174.21 99.3772C1173.14 96.806 1188.77 85.6761 1187.07 81.6161C1185.28 77.3255 1163.1 90.2106 1161.4 86.1415C1160.14 83.141 1162.48 76.1151 1161.5 73.7563C1161.05 72.6831 1160.02 72.6234 1158.53 73.2475C1156.61 74.0587 1148.06 82.4493 1143.8 84.2473C1141.66 85.1486 1138.92 85.8031 1137.67 82.8004C1135.61 77.8727 1141.69 69.0121 1154.71 63.5212C1175.79 54.6303 1194.47 63.8812 1204.67 88.2958C1217.56 119.134 1199.27 135.912 1187.76 140.769Z" fill="#FFA91F"/>
</svg>
