<svg width="28" height="28" viewBox="0 0 28 28" fill="none" xmlns="http://www.w3.org/2000/svg">
<circle cx="14" cy="14" r="13.5" fill="white" stroke="#E9E9F2"/>
<rect width="17.5" height="17.5" transform="translate(5.25 5.25)" fill="white"/>
<path d="M16.7062 7.43811C15.7566 7.42437 14.7664 7.69962 13.9991 8.47244C13.2257 7.70112 12.2261 7.43805 11.3023 7.43805C9.00661 7.43805 6.70837 9.34005 6.70837 12.0318C6.70837 14.6271 8.36835 16.7878 10.0102 18.2567C10.8409 19 11.6929 19.59 12.3849 19.9964C12.7306 20.1994 13.0423 20.3601 13.2965 20.4719C13.4232 20.5277 13.5421 20.5742 13.648 20.6078C13.7402 20.637 13.87 20.6724 14.0003 20.6724C14.1305 20.6724 14.2604 20.637 14.3525 20.6078C14.4584 20.5742 14.5773 20.5277 14.704 20.4719C14.9583 20.3601 15.2699 20.1994 15.6157 19.9964C16.3076 19.59 17.1596 19 17.9903 18.2567C19.6322 16.7878 21.2921 14.6271 21.2921 12.0318C21.2921 9.33367 18.9885 7.47113 16.7062 7.43811Z" fill="#0A2052"/>
</svg>
