<svg width="28" height="28" viewBox="0 0 28 28" fill="none" xmlns="http://www.w3.org/2000/svg">
<circle cx="14" cy="14" r="13.5" fill="white" stroke="#E9E9F2"/>
<rect width="17.5" height="17.5" transform="translate(5.25 5.25)" fill="white"/>
<path fill-rule="evenodd" clip-rule="evenodd" d="M13.9991 8.47244C14.7664 7.69962 15.7566 7.42437 16.7062 7.43811C18.9885 7.47113 21.2921 9.33367 21.2921 12.0318C21.2921 14.6271 19.6322 16.7878 17.9903 18.2567C17.1596 19 16.3076 19.59 15.6157 19.9964C15.2699 20.1994 14.9583 20.3601 14.704 20.4719C14.5773 20.5277 14.4584 20.5742 14.3525 20.6078C14.2604 20.637 14.1305 20.6724 14.0003 20.6724C13.87 20.6724 13.7402 20.637 13.648 20.6078C13.5421 20.5742 13.4232 20.5277 13.2965 20.4719C13.0423 20.3601 12.7306 20.1994 12.3849 19.9964C11.6929 19.59 10.8409 19 10.0102 18.2567C8.36835 16.7878 6.70837 14.6271 6.70837 12.0318C6.70837 9.34005 9.00661 7.43805 11.3023 7.43805C12.2261 7.43805 13.2257 7.70112 13.9991 8.47244ZM16.6903 8.53174C15.817 8.51911 15.0031 8.81561 14.4553 9.63725C14.3539 9.78939 14.1831 9.88077 14.0003 9.88077C13.8174 9.88077 13.6467 9.78939 13.5452 9.63725C13.0008 8.82058 12.1721 8.5318 11.3023 8.5318C9.55089 8.5318 7.80212 10.0022 7.80212 12.0318C7.80212 14.1578 9.1774 16.044 10.7395 17.4416C11.5107 18.1316 12.3028 18.6797 12.9387 19.0532C13.2569 19.2401 13.5302 19.3798 13.737 19.4708C13.8409 19.5165 13.9216 19.5471 13.9787 19.5652C13.9868 19.5678 13.994 19.5699 14.0003 19.5718C14.0065 19.5699 14.0137 19.5678 14.0218 19.5652C14.079 19.5471 14.1597 19.5165 14.2635 19.4708C14.4703 19.3798 14.7436 19.2401 15.0618 19.0532C15.6978 18.6797 16.4898 18.1316 17.261 17.4416C18.8231 16.044 20.1984 14.1578 20.1984 12.0318C20.1984 10.0086 18.455 8.55728 16.6903 8.53174Z" fill="#0A2052"/>
</svg>
