<svg width="16" height="14" viewBox="0 0 16 14" fill="none" xmlns="http://www.w3.org/2000/svg">
<path fill-rule="evenodd" clip-rule="evenodd" d="M7.99906 1.47244C8.76642 0.69962 9.75658 0.424369 10.7062 0.438109C12.9885 0.471133 15.2921 2.33367 15.2921 5.03178C15.2921 7.6271 13.6322 9.78778 11.9903 11.2567C11.1596 12 10.3076 12.59 9.61566 12.9964C9.2699 13.1994 8.95826 13.3601 8.70397 13.4719C8.57728 13.5277 8.45838 13.5742 8.35249 13.6078C8.26036 13.637 8.1305 13.6724 8.00026 13.6724C7.87002 13.6724 7.74015 13.637 7.64802 13.6078C7.54213 13.5742 7.42323 13.5277 7.29654 13.4719C7.04225 13.3601 6.73061 13.1994 6.38485 12.9964C5.69291 12.59 4.8409 12 4.01017 11.2567C2.36835 9.78778 0.708374 7.6271 0.708374 5.03179C0.708374 2.34005 3.00661 0.438053 5.30225 0.438053C6.22611 0.438053 7.22575 0.701124 7.99906 1.47244ZM10.6903 1.53174C9.81695 1.51911 9.00306 1.81561 8.45528 2.63725C8.35385 2.78939 8.1831 2.88077 8.00026 2.88077C7.81741 2.88077 7.64666 2.78939 7.54523 2.63725C7.00077 1.82058 6.17206 1.5318 5.30225 1.5318C3.55089 1.5318 1.80212 3.0022 1.80212 5.03179C1.80212 7.15784 3.1774 9.04402 4.73946 10.4416C5.51068 11.1316 6.30275 11.6797 6.93874 12.0532C7.25694 12.2401 7.53022 12.3798 7.73702 12.4708C7.84086 12.5165 7.92155 12.5471 7.97868 12.5652C7.98684 12.5678 7.99402 12.5699 8.00026 12.5718C8.0065 12.5699 8.01367 12.5678 8.02183 12.5652C8.07896 12.5471 8.15965 12.5165 8.2635 12.4708C8.4703 12.3798 8.74357 12.2401 9.06178 12.0532C9.69776 11.6797 10.4898 11.1316 11.261 10.4416C12.8231 9.04402 14.1984 7.15783 14.1984 5.03178C14.1984 3.00858 12.455 1.55728 10.6903 1.53174Z" fill="#0A2052"/>
</svg>
