<svg width="18" height="18" viewBox="0 0 18 18" fill="none" xmlns="http://www.w3.org/2000/svg">
<rect width="17.5" height="17.5" transform="translate(0.25 0.25)" fill="white"/>
<path d="M11.7062 2.43811C10.7566 2.42437 9.76642 2.69962 8.99906 3.47244C8.22575 2.70112 7.22611 2.43805 6.30225 2.43805C4.00661 2.43805 1.70837 4.34005 1.70837 7.03178C1.70837 9.6271 3.36835 11.7878 5.01017 13.2567C5.8409 14 6.69291 14.59 7.38485 14.9964C7.73061 15.1994 8.04225 15.3601 8.29654 15.4719C8.42323 15.5277 8.54213 15.5742 8.64802 15.6078C8.74015 15.637 8.87002 15.6724 9.00026 15.6724C9.1305 15.6724 9.26036 15.637 9.35249 15.6078C9.45838 15.5742 9.57728 15.5277 9.70397 15.4719C9.95826 15.3601 10.2699 15.1994 10.6157 14.9964C11.3076 14.59 12.1596 14 12.9903 13.2567C14.6322 11.7878 16.2921 9.6271 16.2921 7.03178C16.2921 4.33367 13.9885 2.47113 11.7062 2.43811Z" fill="#0A2052"/>
</svg>
