<svg width="18" height="18" viewBox="0 0 18 18" fill="none" xmlns="http://www.w3.org/2000/svg">
<path d="M12.0769 3.45795C12.7298 3.45795 13.3559 3.71736 13.8175 4.17911C14.2791 4.64086 14.5385 5.26713 14.5385 5.92014M17 5.92014C17.0001 6.63837 16.8431 7.34794 16.5401 7.99908C16.2371 8.65021 15.7953 9.22717 15.2458 9.68948C14.6963 10.1518 14.0523 10.4883 13.3591 10.6753C12.6658 10.8624 11.94 10.8955 11.2326 10.7723C10.7707 10.6927 10.2816 10.7936 9.95015 11.1252L7.76923 13.3067H5.92308V15.1534H4.07692V17H1V14.6872C1 14.1972 1.19446 13.7269 1.54072 13.3814L6.87323 8.04747C7.20472 7.7159 7.30564 7.22674 7.22605 6.76467C7.1097 6.09263 7.13418 5.40374 7.29795 4.74166C7.46172 4.07958 7.7612 3.45874 8.17742 2.9185C8.59363 2.37826 9.1175 1.9304 9.71583 1.60329C10.3142 1.27619 10.9739 1.07697 11.6532 1.01827C12.3326 0.959573 13.0167 1.04267 13.6622 1.2623C14.3078 1.48193 14.9007 1.8333 15.4033 2.29414C15.906 2.75498 16.3075 3.31525 16.5823 3.93943C16.8572 4.56361 16.9994 5.2381 17 5.92014Z" stroke="#0A2052" stroke-opacity="0.6" stroke-linecap="round" stroke-linejoin="round"/>
</svg>
